<?xml version="1.0" encoding="UTF-8" standalone="no"?>
<!DOCTYPE svg PUBLIC "-//W3C//DTD SVG 1.1//EN"
 "http://www.w3.org/Graphics/SVG/1.1/DTD/svg11.dtd">
<!-- Generated by graphviz version 14.0.2 (0)
 -->
<!-- Pages: 1 -->
<svg width="773pt" height="321pt"
 viewBox="0.00 0.00 773.00 321.00" xmlns="http://www.w3.org/2000/svg" xmlns:xlink="http://www.w3.org/1999/xlink">
<g id="graph0" class="graph" transform="scale(1 1) rotate(0) translate(4 317.06)">
<polygon fill="white" stroke="none" points="-4,4 -4,-317.06 769.45,-317.06 769.45,4 -4,4"/>
<!-- Ray 1 -->
<g id="node1" class="node">
<title>Ray 1</title>
<polygon fill="lightgray" stroke="black" points="115,-300.99 75,-300.99 75,-280.24 115,-280.24 115,-300.99"/>
<text xml:space="preserve" text-anchor="middle" x="95" y="-288.44" font-family="Times,serif" font-size="9.00">Ray 1</text>
</g>
<!-- Ray 2 -->
<g id="node2" class="node">
<title>Ray 2</title>
<polygon fill="lightgray" stroke="black" points="173,-300.99 133,-300.99 133,-280.24 173,-280.24 173,-300.99"/>
<text xml:space="preserve" text-anchor="middle" x="153" y="-288.44" font-family="Times,serif" font-size="9.00">Ray 2</text>
</g>
<!-- Accel -->
<g id="node12" class="node">
<title>Accel</title>
<ellipse fill="lightblue" stroke="black" cx="75" cy="-116.61" rx="27.22" ry="27.22"/>
<text xml:space="preserve" text-anchor="middle" x="75" y="-114.44" font-family="Times,serif" font-size="9.00">Accel</text>
</g>
<!-- Ray 2&#45;&gt;Accel -->
<g id="edge1" class="edge">
<title>Ray 2&#45;&gt;Accel</title>
<path fill="none" stroke="green" stroke-width="0.44" stroke-dasharray="1,5" d="M139.5,-279.76C122.05,-266.73 93.17,-244.02 87,-232.16 74.66,-208.42 71.94,-178.2 72.16,-154.76"/>
<polygon fill="green" stroke="green" stroke-width="0.44" points="75.65,-154.95 72.43,-144.86 68.65,-154.76 75.65,-154.95"/>
</g>
<!-- 5021 -->
<g id="node19" class="node">
<title>5021</title>
<ellipse fill="white" stroke="black" cx="239" cy="-206" rx="26.16" ry="26.16"/>
<text xml:space="preserve" text-anchor="middle" x="239" y="-203.82" font-family="Times,serif" font-size="9.00">5021</text>
</g>
<!-- Ray 2&#45;&gt;5021 -->
<g id="edge2" class="edge">
<title>Ray 2&#45;&gt;5021</title>
<path fill="none" stroke="red" stroke-width="0.56" d="M163.2,-279.81C175.29,-268.2 195.87,-248.42 212.55,-232.41"/>
<polygon fill="red" stroke="red" stroke-width="0.56" points="214.97,-234.94 219.76,-225.48 210.12,-229.89 214.97,-234.94"/>
</g>
<!-- Ray 3 -->
<g id="node3" class="node">
<title>Ray 3</title>
<polygon fill="lightgray" stroke="black" points="136,-216.37 96,-216.37 96,-195.62 136,-195.62 136,-216.37"/>
<text xml:space="preserve" text-anchor="middle" x="116" y="-203.82" font-family="Times,serif" font-size="9.00">Ray 3</text>
</g>
<!-- 5208 -->
<g id="node17" class="node">
<title>5208</title>
<ellipse fill="white" stroke="black" cx="174" cy="-116.61" rx="26.16" ry="26.16"/>
<text xml:space="preserve" text-anchor="middle" x="174" y="-114.44" font-family="Times,serif" font-size="9.00">5208</text>
</g>
<!-- Ray 3&#45;&gt;5208 -->
<g id="edge8" class="edge">
<title>Ray 3&#45;&gt;5208</title>
<path fill="none" stroke="green" stroke-width="0.42" d="M122.43,-195.31C130.06,-183.81 143.16,-164.07 154.25,-147.37"/>
<polygon fill="green" stroke="green" stroke-width="0.42" points="156.86,-149.76 159.47,-139.5 151.03,-145.89 156.86,-149.76"/>
</g>
<!-- Ray 4 -->
<g id="node4" class="node">
<title>Ray 4</title>
<polygon fill="lightgray" stroke="black" points="40,-216.37 0,-216.37 0,-195.62 40,-195.62 40,-216.37"/>
<text xml:space="preserve" text-anchor="middle" x="20" y="-203.82" font-family="Times,serif" font-size="9.00">Ray 4</text>
</g>
<!-- Steer -->
<g id="node11" class="node">
<title>Steer</title>
<ellipse fill="lightblue" stroke="black" cx="174" cy="-26.69" rx="26.69" ry="26.69"/>
<text xml:space="preserve" text-anchor="middle" x="174" y="-24.52" font-family="Times,serif" font-size="9.00">Steer</text>
</g>
<!-- Ray 4&#45;&gt;Steer -->
<g id="edge11" class="edge">
<title>Ray 4&#45;&gt;Steer</title>
<path fill="none" stroke="red" stroke-width="0.3" d="M18.75,-195.14C16.57,-173.57 14.42,-121.55 39,-89.39 62.9,-58.11 106.33,-42.2 137.49,-34.44"/>
<polygon fill="red" stroke="red" stroke-width="0.3" points="138.14,-37.89 147.09,-32.22 136.56,-31.07 138.14,-37.89"/>
</g>
<!-- Ray 4&#45;&gt;Accel -->
<g id="edge12" class="edge">
<title>Ray 4&#45;&gt;Accel</title>
<path fill="none" stroke="green" stroke-width="1.38" d="M26.1,-195.31C32.93,-184.45 44.39,-166.25 54.5,-150.19"/>
<polygon fill="green" stroke="green" stroke-width="1.38" points="57.4,-152.14 59.76,-141.82 51.48,-148.42 57.4,-152.14"/>
</g>
<!-- Ray 5 -->
<g id="node5" class="node">
<title>Ray 5</title>
<polygon fill="lightgray" stroke="black" points="398,-300.99 358,-300.99 358,-280.24 398,-280.24 398,-300.99"/>
<text xml:space="preserve" text-anchor="middle" x="378" y="-288.44" font-family="Times,serif" font-size="9.00">Ray 5</text>
</g>
<!-- Ray 6 -->
<g id="node6" class="node">
<title>Ray 6</title>
<polygon fill="lightgray" stroke="black" points="456,-300.99 416,-300.99 416,-280.24 456,-280.24 456,-300.99"/>
<text xml:space="preserve" text-anchor="middle" x="436" y="-288.44" font-family="Times,serif" font-size="9.00">Ray 6</text>
</g>
<!-- Ray 7 -->
<g id="node7" class="node">
<title>Ray 7</title>
<polygon fill="lightgray" stroke="black" points="514,-300.99 474,-300.99 474,-280.24 514,-280.24 514,-300.99"/>
<text xml:space="preserve" text-anchor="middle" x="494" y="-288.44" font-family="Times,serif" font-size="9.00">Ray 7</text>
</g>
<!-- Ray 8 -->
<g id="node8" class="node">
<title>Ray 8</title>
<polygon fill="lightgray" stroke="black" points="431,-216.37 391,-216.37 391,-195.62 431,-195.62 431,-216.37"/>
<text xml:space="preserve" text-anchor="middle" x="411" y="-203.82" font-family="Times,serif" font-size="9.00">Ray 8</text>
</g>
<!-- 5343 -->
<g id="node13" class="node">
<title>5343</title>
<ellipse fill="white" stroke="black" cx="318" cy="-116.61" rx="26.16" ry="26.16"/>
<text xml:space="preserve" text-anchor="middle" x="318" y="-114.44" font-family="Times,serif" font-size="9.00">5343</text>
</g>
<!-- Ray 8&#45;&gt;5343 -->
<g id="edge13" class="edge">
<title>Ray 8&#45;&gt;5343</title>
<path fill="none" stroke="green" stroke-width="0.74" d="M400.69,-195.31C387.26,-182.69 363.29,-160.17 344.6,-142.61"/>
<polygon fill="green" stroke="green" stroke-width="0.74" points="347.2,-140.25 337.52,-135.95 342.41,-145.35 347.2,-140.25"/>
</g>
<!-- 984 -->
<g id="node16" class="node">
<title>984</title>
<ellipse fill="white" stroke="black" cx="411" cy="-116.61" rx="22.45" ry="22.45"/>
<text xml:space="preserve" text-anchor="middle" x="411" y="-114.44" font-family="Times,serif" font-size="9.00">984</text>
</g>
<!-- Ray 8&#45;&gt;984 -->
<g id="edge4" class="edge">
<title>Ray 8&#45;&gt;984</title>
<path fill="none" stroke="red" stroke-width="0.16" d="M411,-195.31C411,-184.3 411,-165.76 411,-149.54"/>
<polygon fill="red" stroke="red" stroke-width="0.16" points="414.5,-149.56 411,-139.56 407.5,-149.56 414.5,-149.56"/>
</g>
<!-- Ray 9 -->
<g id="node9" class="node">
<title>Ray 9</title>
<polygon fill="lightgray" stroke="black" points="340,-300.99 300,-300.99 300,-280.24 340,-280.24 340,-300.99"/>
<text xml:space="preserve" text-anchor="middle" x="320" y="-288.44" font-family="Times,serif" font-size="9.00">Ray 9</text>
</g>
<!-- Ray 9&#45;&gt;5343 -->
<g id="edge10" class="edge">
<title>Ray 9&#45;&gt;5343</title>
<path fill="none" stroke="red" stroke-width="0.13" stroke-dasharray="1,5" d="M318.23,-279.89C316.25,-268.5 313.17,-249.04 312,-232.16 310.15,-205.46 311.9,-175.21 313.97,-152.51"/>
<polygon fill="red" stroke="red" stroke-width="0.13" points="317.43,-153.14 314.92,-142.84 310.46,-152.46 317.43,-153.14"/>
</g>
<!-- 7526 -->
<g id="node14" class="node">
<title>7526</title>
<ellipse fill="white" stroke="black" cx="347" cy="-206" rx="26.16" ry="26.16"/>
<text xml:space="preserve" text-anchor="middle" x="347" y="-203.82" font-family="Times,serif" font-size="9.00">7526</text>
</g>
<!-- Ray 9&#45;&gt;7526 -->
<g id="edge15" class="edge">
<title>Ray 9&#45;&gt;7526</title>
<path fill="none" stroke="green" stroke-width="0.35" d="M323.2,-279.81C326.33,-270.25 331.27,-255.14 335.83,-241.16"/>
<polygon fill="green" stroke="green" stroke-width="0.35" points="339.12,-242.38 338.9,-231.79 332.47,-240.2 339.12,-242.38"/>
</g>
<!-- Speed -->
<g id="node10" class="node">
<title>Speed</title>
<polygon fill="lightgray" stroke="black" points="194.38,-216.37 153.62,-216.37 153.62,-195.62 194.38,-195.62 194.38,-216.37"/>
<text xml:space="preserve" text-anchor="middle" x="174" y="-203.82" font-family="Times,serif" font-size="9.00">Speed</text>
</g>
<!-- Speed&#45;&gt;5208 -->
<g id="edge14" class="edge">
<title>Speed&#45;&gt;5208</title>
<path fill="none" stroke="green" stroke-width="0.11" d="M174,-195.31C174,-185.03 174,-168.18 174,-152.79"/>
<polygon fill="green" stroke="green" stroke-width="0.11" points="177.5,-153.14 174,-143.14 170.5,-153.14 177.5,-153.14"/>
</g>
<!-- 7526&#45;&gt;5343 -->
<g id="edge16" class="edge">
<title>7526&#45;&gt;5343</title>
<path fill="none" stroke="red" stroke-width="0.21" d="M338.92,-180.65C335.94,-171.66 332.5,-161.29 329.28,-151.6"/>
<polygon fill="red" stroke="red" stroke-width="0.21" points="332.61,-150.51 326.13,-142.12 325.96,-152.72 332.61,-150.51"/>
</g>
<!-- 982 -->
<g id="node15" class="node">
<title>982</title>
<ellipse fill="white" stroke="black" cx="554" cy="-290.61" rx="22.45" ry="22.45"/>
<text xml:space="preserve" text-anchor="middle" x="554" y="-288.44" font-family="Times,serif" font-size="9.00">982</text>
</g>
<!-- 5208&#45;&gt;Steer -->
<g id="edge7" class="edge">
<title>5208&#45;&gt;Steer</title>
<path fill="none" stroke="green" stroke-width="0.16" d="M174,-90.18C174,-81.94 174,-72.64 174,-63.78"/>
<polygon fill="green" stroke="green" stroke-width="0.16" points="177.5,-63.92 174,-53.92 170.5,-63.92 177.5,-63.92"/>
</g>
<!-- 988 -->
<g id="node18" class="node">
<title>988</title>
<ellipse fill="white" stroke="black" cx="617" cy="-290.61" rx="22.45" ry="22.45"/>
<text xml:space="preserve" text-anchor="middle" x="617" y="-288.44" font-family="Times,serif" font-size="9.00">988</text>
</g>
<!-- 5021&#45;&gt;Steer -->
<g id="edge5" class="edge">
<title>5021&#45;&gt;Steer</title>
<path fill="none" stroke="green" stroke-width="0.61" d="M234.5,-180.04C229.74,-156.21 221.23,-119.56 209,-89.39 204.8,-79.03 199.18,-68.26 193.68,-58.68"/>
<polygon fill="green" stroke="green" stroke-width="0.61" points="196.85,-57.16 188.74,-50.35 190.83,-60.73 196.85,-57.16"/>
</g>
<!-- 5021&#45;&gt;Accel -->
<g id="edge3" class="edge">
<title>5021&#45;&gt;Accel</title>
<path fill="none" stroke="green" stroke-width="0.37" stroke-dasharray="1,5" d="M218.05,-189.52C213.2,-186.18 208,-182.77 203,-179.83 172.21,-161.74 135.39,-144.24 109.16,-132.44"/>
<polygon fill="green" stroke="green" stroke-width="0.37" points="110.73,-129.31 100.17,-128.43 107.88,-135.7 110.73,-129.31"/>
</g>
<!-- 5021&#45;&gt;5343 -->
<g id="edge9" class="edge">
<title>5021&#45;&gt;5343</title>
<path fill="none" stroke="green" stroke-width="0.6" d="M256.14,-186.04C267.12,-173.9 281.52,-157.96 293.67,-144.52"/>
<polygon fill="green" stroke="green" stroke-width="0.6" points="296.18,-146.97 300.29,-137.2 290.98,-142.28 296.18,-146.97"/>
</g>
<!-- 5021&#45;&gt;5208 -->
<g id="edge6" class="edge">
<title>5021&#45;&gt;5208</title>
<path fill="none" stroke="red" stroke-width="0.14" d="M223.6,-184.29C215.1,-172.86 204.42,-158.5 195.14,-146.04"/>
<polygon fill="red" stroke="red" stroke-width="0.14" points="198.19,-144.27 189.42,-138.33 192.58,-148.45 198.19,-144.27"/>
</g>
<!-- 990 -->
<g id="node20" class="node">
<title>990</title>
<ellipse fill="white" stroke="black" cx="680" cy="-290.61" rx="22.45" ry="22.45"/>
<text xml:space="preserve" text-anchor="middle" x="680" y="-288.44" font-family="Times,serif" font-size="9.00">990</text>
</g>
<!-- 991 -->
<g id="node21" class="node">
<title>991</title>
<ellipse fill="white" stroke="black" cx="743" cy="-290.61" rx="22.45" ry="22.45"/>
<text xml:space="preserve" text-anchor="middle" x="743" y="-288.44" font-family="Times,serif" font-size="9.00">991</text>
</g>
</g>
</svg>
