<?xml version="1.0" encoding="UTF-8" standalone="no"?>
<!DOCTYPE svg PUBLIC "-//W3C//DTD SVG 1.1//EN"
 "http://www.w3.org/Graphics/SVG/1.1/DTD/svg11.dtd">
<!-- Generated by graphviz version 14.0.2 (0)
 -->
<!-- Pages: 1 -->
<svg width="1209pt" height="62pt"
 viewBox="0.00 0.00 1209.00 62.00" xmlns="http://www.w3.org/2000/svg" xmlns:xlink="http://www.w3.org/1999/xlink">
<g id="graph0" class="graph" transform="scale(1 1) rotate(0) translate(4 58.45)">
<polygon fill="white" stroke="none" points="-4,4 -4,-58.45 1204.74,-58.45 1204.74,4 -4,4"/>
<!-- Ray 1 -->
<g id="node1" class="node">
<title>Ray 1</title>
<polygon fill="lightgray" stroke="black" points="40,-37.6 0,-37.6 0,-16.85 40,-16.85 40,-37.6"/>
<text xml:space="preserve" text-anchor="middle" x="20" y="-25.05" font-family="Times,serif" font-size="9.00">Ray 1</text>
</g>
<!-- Ray 2 -->
<g id="node2" class="node">
<title>Ray 2</title>
<polygon fill="lightgray" stroke="black" points="98,-37.6 58,-37.6 58,-16.85 98,-16.85 98,-37.6"/>
<text xml:space="preserve" text-anchor="middle" x="78" y="-25.05" font-family="Times,serif" font-size="9.00">Ray 2</text>
</g>
<!-- Ray 3 -->
<g id="node3" class="node">
<title>Ray 3</title>
<polygon fill="lightgray" stroke="black" points="156,-37.6 116,-37.6 116,-16.85 156,-16.85 156,-37.6"/>
<text xml:space="preserve" text-anchor="middle" x="136" y="-25.05" font-family="Times,serif" font-size="9.00">Ray 3</text>
</g>
<!-- Ray 4 -->
<g id="node4" class="node">
<title>Ray 4</title>
<polygon fill="lightgray" stroke="black" points="214,-37.6 174,-37.6 174,-16.85 214,-16.85 214,-37.6"/>
<text xml:space="preserve" text-anchor="middle" x="194" y="-25.05" font-family="Times,serif" font-size="9.00">Ray 4</text>
</g>
<!-- Ray 5 -->
<g id="node5" class="node">
<title>Ray 5</title>
<polygon fill="lightgray" stroke="black" points="272,-37.6 232,-37.6 232,-16.85 272,-16.85 272,-37.6"/>
<text xml:space="preserve" text-anchor="middle" x="252" y="-25.05" font-family="Times,serif" font-size="9.00">Ray 5</text>
</g>
<!-- Ray 6 -->
<g id="node6" class="node">
<title>Ray 6</title>
<polygon fill="lightgray" stroke="black" points="330,-37.6 290,-37.6 290,-16.85 330,-16.85 330,-37.6"/>
<text xml:space="preserve" text-anchor="middle" x="310" y="-25.05" font-family="Times,serif" font-size="9.00">Ray 6</text>
</g>
<!-- Ray 7 -->
<g id="node7" class="node">
<title>Ray 7</title>
<polygon fill="lightgray" stroke="black" points="388,-37.6 348,-37.6 348,-16.85 388,-16.85 388,-37.6"/>
<text xml:space="preserve" text-anchor="middle" x="368" y="-25.05" font-family="Times,serif" font-size="9.00">Ray 7</text>
</g>
<!-- Ray 8 -->
<g id="node8" class="node">
<title>Ray 8</title>
<polygon fill="lightgray" stroke="black" points="446,-37.6 406,-37.6 406,-16.85 446,-16.85 446,-37.6"/>
<text xml:space="preserve" text-anchor="middle" x="426" y="-25.05" font-family="Times,serif" font-size="9.00">Ray 8</text>
</g>
<!-- Ray 9 -->
<g id="node9" class="node">
<title>Ray 9</title>
<polygon fill="lightgray" stroke="black" points="504,-37.6 464,-37.6 464,-16.85 504,-16.85 504,-37.6"/>
<text xml:space="preserve" text-anchor="middle" x="484" y="-25.05" font-family="Times,serif" font-size="9.00">Ray 9</text>
</g>
<!-- Speed -->
<g id="node10" class="node">
<title>Speed</title>
<polygon fill="lightgray" stroke="black" points="562.38,-37.6 521.62,-37.6 521.62,-16.85 562.38,-16.85 562.38,-37.6"/>
<text xml:space="preserve" text-anchor="middle" x="542" y="-25.05" font-family="Times,serif" font-size="9.00">Speed</text>
</g>
<!-- Steer -->
<g id="node11" class="node">
<title>Steer</title>
<ellipse fill="lightblue" stroke="black" cx="607" cy="-27.22" rx="26.69" ry="26.69"/>
<text xml:space="preserve" text-anchor="middle" x="607" y="-25.05" font-family="Times,serif" font-size="9.00">Steer</text>
</g>
<!-- Accel -->
<g id="node12" class="node">
<title>Accel</title>
<ellipse fill="lightblue" stroke="black" cx="679" cy="-27.22" rx="27.22" ry="27.22"/>
<text xml:space="preserve" text-anchor="middle" x="679" y="-25.05" font-family="Times,serif" font-size="9.00">Accel</text>
</g>
<!-- 2 -->
<g id="node13" class="node">
<title>2</title>
<ellipse fill="white" stroke="black" cx="739" cy="-27.22" rx="15.03" ry="15.03"/>
<text xml:space="preserve" text-anchor="middle" x="739" y="-25.05" font-family="Times,serif" font-size="9.00">2</text>
</g>
<!-- 3 -->
<g id="node14" class="node">
<title>3</title>
<ellipse fill="white" stroke="black" cx="787" cy="-27.22" rx="15.03" ry="15.03"/>
<text xml:space="preserve" text-anchor="middle" x="787" y="-25.05" font-family="Times,serif" font-size="9.00">3</text>
</g>
<!-- 4 -->
<g id="node15" class="node">
<title>4</title>
<ellipse fill="white" stroke="black" cx="835" cy="-27.22" rx="15.03" ry="15.03"/>
<text xml:space="preserve" text-anchor="middle" x="835" y="-25.05" font-family="Times,serif" font-size="9.00">4</text>
</g>
<!-- 5 -->
<g id="node16" class="node">
<title>5</title>
<ellipse fill="white" stroke="black" cx="883" cy="-27.22" rx="15.03" ry="15.03"/>
<text xml:space="preserve" text-anchor="middle" x="883" y="-25.05" font-family="Times,serif" font-size="9.00">5</text>
</g>
<!-- 6 -->
<g id="node17" class="node">
<title>6</title>
<ellipse fill="white" stroke="black" cx="931" cy="-27.22" rx="15.03" ry="15.03"/>
<text xml:space="preserve" text-anchor="middle" x="931" y="-25.05" font-family="Times,serif" font-size="9.00">6</text>
</g>
<!-- 7 -->
<g id="node18" class="node">
<title>7</title>
<ellipse fill="white" stroke="black" cx="979" cy="-27.22" rx="15.03" ry="15.03"/>
<text xml:space="preserve" text-anchor="middle" x="979" y="-25.05" font-family="Times,serif" font-size="9.00">7</text>
</g>
<!-- 8 -->
<g id="node19" class="node">
<title>8</title>
<ellipse fill="white" stroke="black" cx="1027" cy="-27.22" rx="15.03" ry="15.03"/>
<text xml:space="preserve" text-anchor="middle" x="1027" y="-25.05" font-family="Times,serif" font-size="9.00">8</text>
</g>
<!-- 9 -->
<g id="node20" class="node">
<title>9</title>
<ellipse fill="white" stroke="black" cx="1075" cy="-27.22" rx="15.03" ry="15.03"/>
<text xml:space="preserve" text-anchor="middle" x="1075" y="-25.05" font-family="Times,serif" font-size="9.00">9</text>
</g>
<!-- 10 -->
<g id="node21" class="node">
<title>10</title>
<ellipse fill="white" stroke="black" cx="1127" cy="-27.22" rx="18.74" ry="18.74"/>
<text xml:space="preserve" text-anchor="middle" x="1127" y="-25.05" font-family="Times,serif" font-size="9.00">10</text>
</g>
<!-- 11 -->
<g id="node22" class="node">
<title>11</title>
<ellipse fill="white" stroke="black" cx="1182" cy="-27.22" rx="18.74" ry="18.74"/>
<text xml:space="preserve" text-anchor="middle" x="1182" y="-25.05" font-family="Times,serif" font-size="9.00">11</text>
</g>
</g>
</svg>
