<?xml version="1.0" encoding="UTF-8" standalone="no"?>
<!DOCTYPE svg PUBLIC "-//W3C//DTD SVG 1.1//EN"
 "http://www.w3.org/Graphics/SVG/1.1/DTD/svg11.dtd">
<!-- Generated by graphviz version 14.0.2 (0)
 -->
<!-- Pages: 1 -->
<svg width="1016pt" height="143pt"
 viewBox="0.00 0.00 1016.00 143.00" xmlns="http://www.w3.org/2000/svg" xmlns:xlink="http://www.w3.org/1999/xlink">
<g id="graph0" class="graph" transform="scale(1 1) rotate(0) translate(4 139.35)">
<polygon fill="white" stroke="none" points="-4,4 -4,-139.35 1012.45,-139.35 1012.45,4 -4,4"/>
<!-- Ray 1 -->
<g id="node1" class="node">
<title>Ray 1</title>
<polygon fill="lightgray" stroke="black" points="40,-123.27 0,-123.27 0,-102.52 40,-102.52 40,-123.27"/>
<text xml:space="preserve" text-anchor="middle" x="20" y="-110.72" font-family="Times,serif" font-size="9.00">Ray 1</text>
</g>
<!-- Ray 2 -->
<g id="node2" class="node">
<title>Ray 2</title>
<polygon fill="lightgray" stroke="black" points="98,-123.27 58,-123.27 58,-102.52 98,-102.52 98,-123.27"/>
<text xml:space="preserve" text-anchor="middle" x="78" y="-110.72" font-family="Times,serif" font-size="9.00">Ray 2</text>
</g>
<!-- 933 -->
<g id="node14" class="node">
<title>933</title>
<ellipse fill="white" stroke="black" cx="78" cy="-27.22" rx="22.45" ry="22.45"/>
<text xml:space="preserve" text-anchor="middle" x="78" y="-25.05" font-family="Times,serif" font-size="9.00">933</text>
</g>
<!-- Ray 2&#45;&gt;933 -->
<g id="edge5" class="edge">
<title>Ray 2&#45;&gt;933</title>
<path fill="none" stroke="red" stroke-width="0.2" d="M78,-102.3C78,-91.98 78,-75.01 78,-59.91"/>
<polygon fill="red" stroke="red" stroke-width="0.2" points="81.5,-60.17 78,-50.17 74.5,-60.17 81.5,-60.17"/>
</g>
<!-- Ray 3 -->
<g id="node3" class="node">
<title>Ray 3</title>
<polygon fill="lightgray" stroke="black" points="161,-123.27 121,-123.27 121,-102.52 161,-102.52 161,-123.27"/>
<text xml:space="preserve" text-anchor="middle" x="141" y="-110.72" font-family="Times,serif" font-size="9.00">Ray 3</text>
</g>
<!-- 932 -->
<g id="node13" class="node">
<title>932</title>
<ellipse fill="white" stroke="black" cx="141" cy="-27.22" rx="22.45" ry="22.45"/>
<text xml:space="preserve" text-anchor="middle" x="141" y="-25.05" font-family="Times,serif" font-size="9.00">932</text>
</g>
<!-- Ray 3&#45;&gt;932 -->
<g id="edge2" class="edge">
<title>Ray 3&#45;&gt;932</title>
<path fill="none" stroke="red" stroke-width="0.18" stroke-dasharray="1,5" d="M141,-102.3C141,-91.98 141,-75.01 141,-59.91"/>
<polygon fill="red" stroke="red" stroke-width="0.18" points="144.5,-60.13 141,-50.13 137.5,-60.13 144.5,-60.13"/>
</g>
<!-- Ray 4 -->
<g id="node4" class="node">
<title>Ray 4</title>
<polygon fill="lightgray" stroke="black" points="219,-123.27 179,-123.27 179,-102.52 219,-102.52 219,-123.27"/>
<text xml:space="preserve" text-anchor="middle" x="199" y="-110.72" font-family="Times,serif" font-size="9.00">Ray 4</text>
</g>
<!-- Ray 5 -->
<g id="node5" class="node">
<title>Ray 5</title>
<polygon fill="lightgray" stroke="black" points="277,-123.27 237,-123.27 237,-102.52 277,-102.52 277,-123.27"/>
<text xml:space="preserve" text-anchor="middle" x="257" y="-110.72" font-family="Times,serif" font-size="9.00">Ray 5</text>
</g>
<!-- Steer -->
<g id="node11" class="node">
<title>Steer</title>
<ellipse fill="lightblue" stroke="black" cx="257" cy="-27.22" rx="26.69" ry="26.69"/>
<text xml:space="preserve" text-anchor="middle" x="257" y="-25.05" font-family="Times,serif" font-size="9.00">Steer</text>
</g>
<!-- Ray 5&#45;&gt;Steer -->
<g id="edge4" class="edge">
<title>Ray 5&#45;&gt;Steer</title>
<path fill="none" stroke="red" stroke-width="0.5" d="M257,-102.3C257,-93.09 257,-78.58 257,-64.84"/>
<polygon fill="red" stroke="red" stroke-width="0.5" points="260.5,-64.85 257,-54.85 253.5,-64.85 260.5,-64.85"/>
</g>
<!-- Ray 6 -->
<g id="node6" class="node">
<title>Ray 6</title>
<polygon fill="lightgray" stroke="black" points="335,-123.27 295,-123.27 295,-102.52 335,-102.52 335,-123.27"/>
<text xml:space="preserve" text-anchor="middle" x="315" y="-110.72" font-family="Times,serif" font-size="9.00">Ray 6</text>
</g>
<!-- Ray 7 -->
<g id="node7" class="node">
<title>Ray 7</title>
<polygon fill="lightgray" stroke="black" points="393,-123.27 353,-123.27 353,-102.52 393,-102.52 393,-123.27"/>
<text xml:space="preserve" text-anchor="middle" x="373" y="-110.72" font-family="Times,serif" font-size="9.00">Ray 7</text>
</g>
<!-- Ray 8 -->
<g id="node8" class="node">
<title>Ray 8</title>
<polygon fill="lightgray" stroke="black" points="451,-123.27 411,-123.27 411,-102.52 451,-102.52 451,-123.27"/>
<text xml:space="preserve" text-anchor="middle" x="431" y="-110.72" font-family="Times,serif" font-size="9.00">Ray 8</text>
</g>
<!-- Accel -->
<g id="node12" class="node">
<title>Accel</title>
<ellipse fill="lightblue" stroke="black" cx="431" cy="-27.22" rx="27.22" ry="27.22"/>
<text xml:space="preserve" text-anchor="middle" x="431" y="-25.05" font-family="Times,serif" font-size="9.00">Accel</text>
</g>
<!-- Ray 8&#45;&gt;Accel -->
<g id="edge1" class="edge">
<title>Ray 8&#45;&gt;Accel</title>
<path fill="none" stroke="green" stroke-width="0.31" d="M431,-102.3C431,-93.13 431,-78.72 431,-65.04"/>
<polygon fill="green" stroke="green" stroke-width="0.31" points="434.5,-65.29 431,-55.29 427.5,-65.29 434.5,-65.29"/>
</g>
<!-- Ray 9 -->
<g id="node9" class="node">
<title>Ray 9</title>
<polygon fill="lightgray" stroke="black" points="509,-123.27 469,-123.27 469,-102.52 509,-102.52 509,-123.27"/>
<text xml:space="preserve" text-anchor="middle" x="489" y="-110.72" font-family="Times,serif" font-size="9.00">Ray 9</text>
</g>
<!-- Speed -->
<g id="node10" class="node">
<title>Speed</title>
<polygon fill="lightgray" stroke="black" points="567.38,-123.27 526.62,-123.27 526.62,-102.52 567.38,-102.52 567.38,-123.27"/>
<text xml:space="preserve" text-anchor="middle" x="547" y="-110.72" font-family="Times,serif" font-size="9.00">Speed</text>
</g>
<!-- 934 -->
<g id="node15" class="node">
<title>934</title>
<ellipse fill="white" stroke="black" cx="608" cy="-112.9" rx="22.45" ry="22.45"/>
<text xml:space="preserve" text-anchor="middle" x="608" y="-110.72" font-family="Times,serif" font-size="9.00">934</text>
</g>
<!-- 935 -->
<g id="node16" class="node">
<title>935</title>
<ellipse fill="white" stroke="black" cx="671" cy="-112.9" rx="22.45" ry="22.45"/>
<text xml:space="preserve" text-anchor="middle" x="671" y="-110.72" font-family="Times,serif" font-size="9.00">935</text>
</g>
<!-- 940 -->
<g id="node21" class="node">
<title>940</title>
<ellipse fill="white" stroke="black" cx="671" cy="-27.22" rx="22.45" ry="22.45"/>
<text xml:space="preserve" text-anchor="middle" x="671" y="-25.05" font-family="Times,serif" font-size="9.00">940</text>
</g>
<!-- 935&#45;&gt;940 -->
<g id="edge3" class="edge">
<title>935&#45;&gt;940</title>
<path fill="none" stroke="red" stroke-width="0.71" d="M671,-90.35C671,-81.34 671,-70.68 671,-60.76"/>
<polygon fill="red" stroke="red" stroke-width="0.71" points="674.5,-61.07 671,-51.07 667.5,-61.07 674.5,-61.07"/>
</g>
<!-- 936 -->
<g id="node17" class="node">
<title>936</title>
<ellipse fill="white" stroke="black" cx="734" cy="-112.9" rx="22.45" ry="22.45"/>
<text xml:space="preserve" text-anchor="middle" x="734" y="-110.72" font-family="Times,serif" font-size="9.00">936</text>
</g>
<!-- 937 -->
<g id="node18" class="node">
<title>937</title>
<ellipse fill="white" stroke="black" cx="797" cy="-112.9" rx="22.45" ry="22.45"/>
<text xml:space="preserve" text-anchor="middle" x="797" y="-110.72" font-family="Times,serif" font-size="9.00">937</text>
</g>
<!-- 938 -->
<g id="node19" class="node">
<title>938</title>
<ellipse fill="white" stroke="black" cx="860" cy="-112.9" rx="22.45" ry="22.45"/>
<text xml:space="preserve" text-anchor="middle" x="860" y="-110.72" font-family="Times,serif" font-size="9.00">938</text>
</g>
<!-- 939 -->
<g id="node20" class="node">
<title>939</title>
<ellipse fill="white" stroke="black" cx="923" cy="-112.9" rx="22.45" ry="22.45"/>
<text xml:space="preserve" text-anchor="middle" x="923" y="-110.72" font-family="Times,serif" font-size="9.00">939</text>
</g>
<!-- 941 -->
<g id="node22" class="node">
<title>941</title>
<ellipse fill="white" stroke="black" cx="986" cy="-112.9" rx="22.45" ry="22.45"/>
<text xml:space="preserve" text-anchor="middle" x="986" y="-110.72" font-family="Times,serif" font-size="9.00">941</text>
</g>
</g>
</svg>
