<?xml version="1.0" encoding="UTF-8" standalone="no"?>
<!DOCTYPE svg PUBLIC "-//W3C//DTD SVG 1.1//EN"
 "http://www.w3.org/Graphics/SVG/1.1/DTD/svg11.dtd">
<!-- Generated by graphviz version 14.0.2 (0)
 -->
<!-- Pages: 1 -->
<svg width="948pt" height="232pt"
 viewBox="0.00 0.00 948.00 232.00" xmlns="http://www.w3.org/2000/svg" xmlns:xlink="http://www.w3.org/1999/xlink">
<g id="graph0" class="graph" transform="scale(1 1) rotate(0) translate(4 227.67)">
<polygon fill="white" stroke="none" points="-4,4 -4,-227.67 944.45,-227.67 944.45,4 -4,4"/>
<!-- Ray 1 -->
<g id="node1" class="node">
<title>Ray 1</title>
<polygon fill="lightgray" stroke="black" points="40,-211.6 0,-211.6 0,-190.85 40,-190.85 40,-211.6"/>
<text xml:space="preserve" text-anchor="middle" x="20" y="-199.05" font-family="Times,serif" font-size="9.00">Ray 1</text>
</g>
<!-- Ray 2 -->
<g id="node2" class="node">
<title>Ray 2</title>
<polygon fill="lightgray" stroke="black" points="98,-211.6 58,-211.6 58,-190.85 98,-190.85 98,-211.6"/>
<text xml:space="preserve" text-anchor="middle" x="78" y="-199.05" font-family="Times,serif" font-size="9.00">Ray 2</text>
</g>
<!-- Accel -->
<g id="node12" class="node">
<title>Accel</title>
<ellipse fill="lightblue" stroke="black" cx="51" cy="-27.22" rx="27.22" ry="27.22"/>
<text xml:space="preserve" text-anchor="middle" x="51" y="-25.05" font-family="Times,serif" font-size="9.00">Accel</text>
</g>
<!-- Ray 2&#45;&gt;Accel -->
<g id="edge1" class="edge">
<title>Ray 2&#45;&gt;Accel</title>
<path fill="none" stroke="green" stroke-width="0.27" stroke-dasharray="1,5" d="M76.47,-190.48C72.74,-166.74 63.03,-104.88 56.74,-64.76"/>
<polygon fill="green" stroke="green" stroke-width="0.27" points="60.21,-64.31 55.2,-54.98 53.29,-65.4 60.21,-64.31"/>
</g>
<!-- 5021 -->
<g id="node13" class="node">
<title>5021</title>
<ellipse fill="white" stroke="black" cx="105" cy="-116.61" rx="26.16" ry="26.16"/>
<text xml:space="preserve" text-anchor="middle" x="105" y="-114.44" font-family="Times,serif" font-size="9.00">5021</text>
</g>
<!-- Ray 2&#45;&gt;5021 -->
<g id="edge2" class="edge">
<title>Ray 2&#45;&gt;5021</title>
<path fill="none" stroke="green" stroke-width="0.2" d="M81.2,-190.42C84.36,-180.77 89.36,-165.46 93.97,-151.37"/>
<polygon fill="green" stroke="green" stroke-width="0.2" points="97.19,-152.77 96.97,-142.18 90.54,-150.6 97.19,-152.77"/>
</g>
<!-- Ray 3 -->
<g id="node3" class="node">
<title>Ray 3</title>
<polygon fill="lightgray" stroke="black" points="156,-211.6 116,-211.6 116,-190.85 156,-190.85 156,-211.6"/>
<text xml:space="preserve" text-anchor="middle" x="136" y="-199.05" font-family="Times,serif" font-size="9.00">Ray 3</text>
</g>
<!-- Ray 4 -->
<g id="node4" class="node">
<title>Ray 4</title>
<polygon fill="lightgray" stroke="black" points="214,-211.6 174,-211.6 174,-190.85 214,-190.85 214,-211.6"/>
<text xml:space="preserve" text-anchor="middle" x="194" y="-199.05" font-family="Times,serif" font-size="9.00">Ray 4</text>
</g>
<!-- Ray 5 -->
<g id="node5" class="node">
<title>Ray 5</title>
<polygon fill="lightgray" stroke="black" points="272,-211.6 232,-211.6 232,-190.85 272,-190.85 272,-211.6"/>
<text xml:space="preserve" text-anchor="middle" x="252" y="-199.05" font-family="Times,serif" font-size="9.00">Ray 5</text>
</g>
<!-- Ray 6 -->
<g id="node6" class="node">
<title>Ray 6</title>
<polygon fill="lightgray" stroke="black" points="330,-211.6 290,-211.6 290,-190.85 330,-190.85 330,-211.6"/>
<text xml:space="preserve" text-anchor="middle" x="310" y="-199.05" font-family="Times,serif" font-size="9.00">Ray 6</text>
</g>
<!-- Ray 7 -->
<g id="node7" class="node">
<title>Ray 7</title>
<polygon fill="lightgray" stroke="black" points="388,-211.6 348,-211.6 348,-190.85 388,-190.85 388,-211.6"/>
<text xml:space="preserve" text-anchor="middle" x="368" y="-199.05" font-family="Times,serif" font-size="9.00">Ray 7</text>
</g>
<!-- Ray 8 -->
<g id="node8" class="node">
<title>Ray 8</title>
<polygon fill="lightgray" stroke="black" points="446,-211.6 406,-211.6 406,-190.85 446,-190.85 446,-211.6"/>
<text xml:space="preserve" text-anchor="middle" x="426" y="-199.05" font-family="Times,serif" font-size="9.00">Ray 8</text>
</g>
<!-- 984 -->
<g id="node16" class="node">
<title>984</title>
<ellipse fill="white" stroke="black" cx="426" cy="-116.61" rx="22.45" ry="22.45"/>
<text xml:space="preserve" text-anchor="middle" x="426" y="-114.44" font-family="Times,serif" font-size="9.00">984</text>
</g>
<!-- Ray 8&#45;&gt;984 -->
<g id="edge4" class="edge">
<title>Ray 8&#45;&gt;984</title>
<path fill="none" stroke="red" stroke-width="0.45" d="M426,-190.42C426,-180.48 426,-164.53 426,-150.1"/>
<polygon fill="red" stroke="red" stroke-width="0.45" points="429.5,-150.15 426,-140.15 422.5,-150.15 429.5,-150.15"/>
</g>
<!-- Ray 9 -->
<g id="node9" class="node">
<title>Ray 9</title>
<polygon fill="lightgray" stroke="black" points="504,-211.6 464,-211.6 464,-190.85 504,-190.85 504,-211.6"/>
<text xml:space="preserve" text-anchor="middle" x="484" y="-199.05" font-family="Times,serif" font-size="9.00">Ray 9</text>
</g>
<!-- Speed -->
<g id="node10" class="node">
<title>Speed</title>
<polygon fill="lightgray" stroke="black" points="562.38,-211.6 521.62,-211.6 521.62,-190.85 562.38,-190.85 562.38,-211.6"/>
<text xml:space="preserve" text-anchor="middle" x="542" y="-199.05" font-family="Times,serif" font-size="9.00">Speed</text>
</g>
<!-- Steer -->
<g id="node11" class="node">
<title>Steer</title>
<ellipse fill="lightblue" stroke="black" cx="123" cy="-27.22" rx="26.69" ry="26.69"/>
<text xml:space="preserve" text-anchor="middle" x="123" y="-25.05" font-family="Times,serif" font-size="9.00">Steer</text>
</g>
<!-- 5021&#45;&gt;Steer -->
<g id="edge6" class="edge">
<title>5021&#45;&gt;Steer</title>
<path fill="none" stroke="red" stroke-width="0.4" d="M110.11,-90.8C111.83,-82.46 113.78,-72.98 115.64,-63.97"/>
<polygon fill="red" stroke="red" stroke-width="0.4" points="119.04,-64.79 117.63,-54.29 112.18,-63.38 119.04,-64.79"/>
</g>
<!-- 5021&#45;&gt;Accel -->
<g id="edge3" class="edge">
<title>5021&#45;&gt;Accel</title>
<path fill="none" stroke="green" stroke-width="0.22" d="M91.65,-94.01C85.18,-83.54 77.29,-70.77 70.19,-59.28"/>
<polygon fill="green" stroke="green" stroke-width="0.22" points="73.36,-57.74 65.12,-51.07 67.4,-61.42 73.36,-57.74"/>
</g>
<!-- 982 -->
<g id="node14" class="node">
<title>982</title>
<ellipse fill="white" stroke="black" cx="603" cy="-201.22" rx="22.45" ry="22.45"/>
<text xml:space="preserve" text-anchor="middle" x="603" y="-199.05" font-family="Times,serif" font-size="9.00">982</text>
</g>
<!-- 983 -->
<g id="node15" class="node">
<title>983</title>
<ellipse fill="white" stroke="black" cx="666" cy="-201.22" rx="22.45" ry="22.45"/>
<text xml:space="preserve" text-anchor="middle" x="666" y="-199.05" font-family="Times,serif" font-size="9.00">983</text>
</g>
<!-- 986 -->
<g id="node17" class="node">
<title>986</title>
<ellipse fill="white" stroke="black" cx="729" cy="-201.22" rx="22.45" ry="22.45"/>
<text xml:space="preserve" text-anchor="middle" x="729" y="-199.05" font-family="Times,serif" font-size="9.00">986</text>
</g>
<!-- 989 -->
<g id="node19" class="node">
<title>989</title>
<ellipse fill="white" stroke="black" cx="729" cy="-116.61" rx="22.45" ry="22.45"/>
<text xml:space="preserve" text-anchor="middle" x="729" y="-114.44" font-family="Times,serif" font-size="9.00">989</text>
</g>
<!-- 986&#45;&gt;989 -->
<g id="edge5" class="edge">
<title>986&#45;&gt;989</title>
<path fill="none" stroke="red" stroke-width="0.9" d="M729,-178.52C729,-169.95 729,-159.92 729,-150.51"/>
<polygon fill="red" stroke="red" stroke-width="0.9" points="732.5,-150.81 729,-140.81 725.5,-150.81 732.5,-150.81"/>
</g>
<!-- 988 -->
<g id="node18" class="node">
<title>988</title>
<ellipse fill="white" stroke="black" cx="792" cy="-201.22" rx="22.45" ry="22.45"/>
<text xml:space="preserve" text-anchor="middle" x="792" y="-199.05" font-family="Times,serif" font-size="9.00">988</text>
</g>
<!-- 990 -->
<g id="node20" class="node">
<title>990</title>
<ellipse fill="white" stroke="black" cx="855" cy="-201.22" rx="22.45" ry="22.45"/>
<text xml:space="preserve" text-anchor="middle" x="855" y="-199.05" font-family="Times,serif" font-size="9.00">990</text>
</g>
<!-- 991 -->
<g id="node21" class="node">
<title>991</title>
<ellipse fill="white" stroke="black" cx="918" cy="-201.22" rx="22.45" ry="22.45"/>
<text xml:space="preserve" text-anchor="middle" x="918" y="-199.05" font-family="Times,serif" font-size="9.00">991</text>
</g>
</g>
</svg>
