<?xml version="1.0" encoding="UTF-8" standalone="no"?>
<!DOCTYPE svg PUBLIC "-//W3C//DTD SVG 1.1//EN"
 "http://www.w3.org/Graphics/SVG/1.1/DTD/svg11.dtd">
<!-- Generated by graphviz version 14.0.2 (0)
 -->
<!-- Pages: 1 -->
<svg width="966pt" height="239pt"
 viewBox="0.00 0.00 966.00 239.00" xmlns="http://www.w3.org/2000/svg" xmlns:xlink="http://www.w3.org/1999/xlink">
<g id="graph0" class="graph" transform="scale(1 1) rotate(0) translate(4 235.1)">
<polygon fill="white" stroke="none" points="-4,4 -4,-235.1 962.45,-235.1 962.45,4 -4,4"/>
<!-- Ray 1 -->
<g id="node1" class="node">
<title>Ray 1</title>
<polygon fill="lightgray" stroke="black" points="40,-125.92 0,-125.92 0,-105.17 40,-105.17 40,-125.92"/>
<text xml:space="preserve" text-anchor="middle" x="20" y="-113.37" font-family="Times,serif" font-size="9.00">Ray 1</text>
</g>
<!-- 939 -->
<g id="node18" class="node">
<title>939</title>
<ellipse fill="white" stroke="black" cx="68" cy="-26.16" rx="22.45" ry="22.45"/>
<text xml:space="preserve" text-anchor="middle" x="68" y="-23.99" font-family="Times,serif" font-size="9.00">939</text>
</g>
<!-- Ray 1&#45;&gt;939 -->
<g id="edge4" class="edge">
<title>Ray 1&#45;&gt;939</title>
<path fill="none" stroke="green" stroke-width="0.17" stroke-dasharray="1,5" d="M25.32,-104.86C31.89,-92.91 43.34,-72.05 52.73,-54.96"/>
<polygon fill="green" stroke="green" stroke-width="0.17" points="55.55,-57.11 57.29,-46.66 49.41,-53.74 55.55,-57.11"/>
</g>
<!-- Ray 2 -->
<g id="node2" class="node">
<title>Ray 2</title>
<polygon fill="lightgray" stroke="black" points="179,-215.31 139,-215.31 139,-194.56 179,-194.56 179,-215.31"/>
<text xml:space="preserve" text-anchor="middle" x="159" y="-202.76" font-family="Times,serif" font-size="9.00">Ray 2</text>
</g>
<!-- Ray 3 -->
<g id="node3" class="node">
<title>Ray 3</title>
<polygon fill="lightgray" stroke="black" points="237,-215.31 197,-215.31 197,-194.56 237,-194.56 237,-215.31"/>
<text xml:space="preserve" text-anchor="middle" x="217" y="-202.76" font-family="Times,serif" font-size="9.00">Ray 3</text>
</g>
<!-- Ray 4 -->
<g id="node4" class="node">
<title>Ray 4</title>
<polygon fill="lightgray" stroke="black" points="295,-215.31 255,-215.31 255,-194.56 295,-194.56 295,-215.31"/>
<text xml:space="preserve" text-anchor="middle" x="275" y="-202.76" font-family="Times,serif" font-size="9.00">Ray 4</text>
</g>
<!-- Ray 5 -->
<g id="node5" class="node">
<title>Ray 5</title>
<polygon fill="lightgray" stroke="black" points="353,-215.31 313,-215.31 313,-194.56 353,-194.56 353,-215.31"/>
<text xml:space="preserve" text-anchor="middle" x="333" y="-202.76" font-family="Times,serif" font-size="9.00">Ray 5</text>
</g>
<!-- Ray 6 -->
<g id="node6" class="node">
<title>Ray 6</title>
<polygon fill="lightgray" stroke="black" points="411,-215.31 371,-215.31 371,-194.56 411,-194.56 411,-215.31"/>
<text xml:space="preserve" text-anchor="middle" x="391" y="-202.76" font-family="Times,serif" font-size="9.00">Ray 6</text>
</g>
<!-- Ray 7 -->
<g id="node7" class="node">
<title>Ray 7</title>
<polygon fill="lightgray" stroke="black" points="469,-215.31 429,-215.31 429,-194.56 469,-194.56 469,-215.31"/>
<text xml:space="preserve" text-anchor="middle" x="449" y="-202.76" font-family="Times,serif" font-size="9.00">Ray 7</text>
</g>
<!-- Ray 8 -->
<g id="node8" class="node">
<title>Ray 8</title>
<polygon fill="lightgray" stroke="black" points="527,-215.31 487,-215.31 487,-194.56 527,-194.56 527,-215.31"/>
<text xml:space="preserve" text-anchor="middle" x="507" y="-202.76" font-family="Times,serif" font-size="9.00">Ray 8</text>
</g>
<!-- Accel -->
<g id="node12" class="node">
<title>Accel</title>
<ellipse fill="lightblue" stroke="black" cx="507" cy="-115.55" rx="27.22" ry="27.22"/>
<text xml:space="preserve" text-anchor="middle" x="507" y="-113.37" font-family="Times,serif" font-size="9.00">Accel</text>
</g>
<!-- Ray 8&#45;&gt;Accel -->
<g id="edge1" class="edge">
<title>Ray 8&#45;&gt;Accel</title>
<path fill="none" stroke="green" stroke-width="1.39" d="M507,-194.25C507,-184.67 507,-169.38 507,-154.88"/>
<polygon fill="green" stroke="green" stroke-width="1.39" points="510.5,-155.14 507,-145.14 503.5,-155.14 510.5,-155.14"/>
</g>
<!-- Ray 9 -->
<g id="node9" class="node">
<title>Ray 9</title>
<polygon fill="lightgray" stroke="black" points="585,-215.31 545,-215.31 545,-194.56 585,-194.56 585,-215.31"/>
<text xml:space="preserve" text-anchor="middle" x="565" y="-202.76" font-family="Times,serif" font-size="9.00">Ray 9</text>
</g>
<!-- Speed -->
<g id="node10" class="node">
<title>Speed</title>
<polygon fill="lightgray" stroke="black" points="643.38,-215.31 602.62,-215.31 602.62,-194.56 643.38,-194.56 643.38,-215.31"/>
<text xml:space="preserve" text-anchor="middle" x="623" y="-202.76" font-family="Times,serif" font-size="9.00">Speed</text>
</g>
<!-- Steer -->
<g id="node11" class="node">
<title>Steer</title>
<ellipse fill="lightblue" stroke="black" cx="623" cy="-115.55" rx="26.69" ry="26.69"/>
<text xml:space="preserve" text-anchor="middle" x="623" y="-113.37" font-family="Times,serif" font-size="9.00">Steer</text>
</g>
<!-- Speed&#45;&gt;Steer -->
<g id="edge2" class="edge">
<title>Speed&#45;&gt;Steer</title>
<path fill="none" stroke="green" stroke-width="0.89" d="M623,-194.25C623,-184.41 623,-168.53 623,-153.69"/>
<polygon fill="green" stroke="green" stroke-width="0.89" points="626.5,-154.01 623,-144.01 619.5,-154.01 626.5,-154.01"/>
</g>
<!-- 5870 -->
<g id="node20" class="node">
<title>5870</title>
<ellipse fill="white" stroke="black" cx="656" cy="-26.16" rx="26.16" ry="26.16"/>
<text xml:space="preserve" text-anchor="middle" x="656" y="-23.99" font-family="Times,serif" font-size="9.00">5870</text>
</g>
<!-- Steer&#45;&gt;5870 -->
<g id="edge8" class="edge">
<title>Steer&#45;&gt;5870</title>
<path fill="none" stroke="red" stroke-width="0.29" d="M632.19,-90.21C635.65,-81.04 639.65,-70.45 643.37,-60.6"/>
<polygon fill="red" stroke="red" stroke-width="0.29" points="646.56,-62.07 646.82,-51.48 640.01,-59.6 646.56,-62.07"/>
</g>
<!-- 933 -->
<g id="node13" class="node">
<title>933</title>
<ellipse fill="white" stroke="black" cx="684" cy="-204.94" rx="22.45" ry="22.45"/>
<text xml:space="preserve" text-anchor="middle" x="684" y="-202.76" font-family="Times,serif" font-size="9.00">933</text>
</g>
<!-- 934 -->
<g id="node14" class="node">
<title>934</title>
<ellipse fill="white" stroke="black" cx="690" cy="-115.55" rx="22.45" ry="22.45"/>
<text xml:space="preserve" text-anchor="middle" x="690" y="-113.37" font-family="Times,serif" font-size="9.00">934</text>
</g>
<!-- 934&#45;&gt;5870 -->
<g id="edge3" class="edge">
<title>934&#45;&gt;5870</title>
<path fill="none" stroke="green" stroke-width="0.32" d="M682.11,-94.28C678.23,-84.3 673.44,-72 669.04,-60.67"/>
<polygon fill="green" stroke="green" stroke-width="0.32" points="672.35,-59.54 665.46,-51.49 665.83,-62.08 672.35,-59.54"/>
</g>
<!-- 935 -->
<g id="node15" class="node">
<title>935</title>
<ellipse fill="white" stroke="black" cx="747" cy="-204.94" rx="22.45" ry="22.45"/>
<text xml:space="preserve" text-anchor="middle" x="747" y="-202.76" font-family="Times,serif" font-size="9.00">935</text>
</g>
<!-- 937 -->
<g id="node16" class="node">
<title>937</title>
<ellipse fill="white" stroke="black" cx="810" cy="-204.94" rx="22.45" ry="22.45"/>
<text xml:space="preserve" text-anchor="middle" x="810" y="-202.76" font-family="Times,serif" font-size="9.00">937</text>
</g>
<!-- 938 -->
<g id="node17" class="node">
<title>938</title>
<ellipse fill="white" stroke="black" cx="873" cy="-204.94" rx="22.45" ry="22.45"/>
<text xml:space="preserve" text-anchor="middle" x="873" y="-202.76" font-family="Times,serif" font-size="9.00">938</text>
</g>
<!-- 940 -->
<g id="node19" class="node">
<title>940</title>
<ellipse fill="white" stroke="black" cx="936" cy="-204.94" rx="22.45" ry="22.45"/>
<text xml:space="preserve" text-anchor="middle" x="936" y="-202.76" font-family="Times,serif" font-size="9.00">940</text>
</g>
<!-- 7191 -->
<g id="node21" class="node">
<title>7191</title>
<ellipse fill="white" stroke="black" cx="95" cy="-204.94" rx="26.16" ry="26.16"/>
<text xml:space="preserve" text-anchor="middle" x="95" y="-202.76" font-family="Times,serif" font-size="9.00">7191</text>
</g>
<!-- 7191&#45;&gt;939 -->
<g id="edge5" class="edge">
<title>7191&#45;&gt;939</title>
<path fill="none" stroke="green" stroke-width="0.49" stroke-dasharray="1,5" d="M91.13,-178.61C86.33,-147.17 78.13,-93.51 72.9,-59.23"/>
<polygon fill="green" stroke="green" stroke-width="0.49" points="76.39,-58.92 71.42,-49.56 69.47,-59.97 76.39,-58.92"/>
</g>
<!-- 7293 -->
<g id="node22" class="node">
<title>7293</title>
<ellipse fill="white" stroke="black" cx="122" cy="-115.55" rx="26.16" ry="26.16"/>
<text xml:space="preserve" text-anchor="middle" x="122" y="-113.37" font-family="Times,serif" font-size="9.00">7293</text>
</g>
<!-- 7191&#45;&gt;7293 -->
<g id="edge6" class="edge">
<title>7191&#45;&gt;7293</title>
<path fill="none" stroke="green" stroke-width="0.26" d="M102.52,-179.59C105.28,-170.67 108.45,-160.4 111.42,-150.78"/>
<polygon fill="green" stroke="green" stroke-width="0.26" points="114.7,-152.03 114.31,-141.44 108.01,-149.97 114.7,-152.03"/>
</g>
<!-- 7293&#45;&gt;939 -->
<g id="edge7" class="edge">
<title>7293&#45;&gt;939</title>
<path fill="none" stroke="green" stroke-width="0.31" d="M108.65,-92.95C101.46,-81.32 92.52,-66.85 84.86,-54.45"/>
<polygon fill="green" stroke="green" stroke-width="0.31" points="88.03,-52.92 79.8,-46.25 82.08,-56.6 88.03,-52.92"/>
</g>
</g>
</svg>
