<?xml version="1.0" encoding="UTF-8" standalone="no"?>
<!DOCTYPE svg PUBLIC "-//W3C//DTD SVG 1.1//EN"
 "http://www.w3.org/Graphics/SVG/1.1/DTD/svg11.dtd">
<!-- Generated by graphviz version 14.0.2 (0)
 -->
<!-- Pages: 1 -->
<svg width="951pt" height="143pt"
 viewBox="0.00 0.00 951.00 143.00" xmlns="http://www.w3.org/2000/svg" xmlns:xlink="http://www.w3.org/1999/xlink">
<g id="graph0" class="graph" transform="scale(1 1) rotate(0) translate(4 139.35)">
<polygon fill="white" stroke="none" points="-4,4 -4,-139.35 946.9,-139.35 946.9,4 -4,4"/>
<!-- Ray 1 -->
<g id="node1" class="node">
<title>Ray 1</title>
<polygon fill="lightgray" stroke="black" points="42.45,-123.27 2.45,-123.27 2.45,-102.52 42.45,-102.52 42.45,-123.27"/>
<text xml:space="preserve" text-anchor="middle" x="22.45" y="-110.72" font-family="Times,serif" font-size="9.00">Ray 1</text>
</g>
<!-- 939 -->
<g id="node18" class="node">
<title>939</title>
<ellipse fill="white" stroke="black" cx="22.45" cy="-27.22" rx="22.45" ry="22.45"/>
<text xml:space="preserve" text-anchor="middle" x="22.45" y="-25.05" font-family="Times,serif" font-size="9.00">939</text>
</g>
<!-- Ray 1&#45;&gt;939 -->
<g id="edge4" class="edge">
<title>Ray 1&#45;&gt;939</title>
<path fill="none" stroke="green" stroke-width="0.16" d="M22.45,-102.3C22.45,-91.98 22.45,-75.01 22.45,-59.91"/>
<polygon fill="green" stroke="green" stroke-width="0.16" points="25.95,-60.11 22.45,-50.11 18.95,-60.11 25.95,-60.11"/>
</g>
<!-- Ray 2 -->
<g id="node2" class="node">
<title>Ray 2</title>
<polygon fill="lightgray" stroke="black" points="100.45,-123.27 60.45,-123.27 60.45,-102.52 100.45,-102.52 100.45,-123.27"/>
<text xml:space="preserve" text-anchor="middle" x="80.45" y="-110.72" font-family="Times,serif" font-size="9.00">Ray 2</text>
</g>
<!-- Ray 3 -->
<g id="node3" class="node">
<title>Ray 3</title>
<polygon fill="lightgray" stroke="black" points="158.45,-123.27 118.45,-123.27 118.45,-102.52 158.45,-102.52 158.45,-123.27"/>
<text xml:space="preserve" text-anchor="middle" x="138.45" y="-110.72" font-family="Times,serif" font-size="9.00">Ray 3</text>
</g>
<!-- Ray 4 -->
<g id="node4" class="node">
<title>Ray 4</title>
<polygon fill="lightgray" stroke="black" points="216.45,-123.27 176.45,-123.27 176.45,-102.52 216.45,-102.52 216.45,-123.27"/>
<text xml:space="preserve" text-anchor="middle" x="196.45" y="-110.72" font-family="Times,serif" font-size="9.00">Ray 4</text>
</g>
<!-- Ray 5 -->
<g id="node5" class="node">
<title>Ray 5</title>
<polygon fill="lightgray" stroke="black" points="274.45,-123.27 234.45,-123.27 234.45,-102.52 274.45,-102.52 274.45,-123.27"/>
<text xml:space="preserve" text-anchor="middle" x="254.45" y="-110.72" font-family="Times,serif" font-size="9.00">Ray 5</text>
</g>
<!-- Ray 6 -->
<g id="node6" class="node">
<title>Ray 6</title>
<polygon fill="lightgray" stroke="black" points="332.45,-123.27 292.45,-123.27 292.45,-102.52 332.45,-102.52 332.45,-123.27"/>
<text xml:space="preserve" text-anchor="middle" x="312.45" y="-110.72" font-family="Times,serif" font-size="9.00">Ray 6</text>
</g>
<!-- Ray 7 -->
<g id="node7" class="node">
<title>Ray 7</title>
<polygon fill="lightgray" stroke="black" points="390.45,-123.27 350.45,-123.27 350.45,-102.52 390.45,-102.52 390.45,-123.27"/>
<text xml:space="preserve" text-anchor="middle" x="370.45" y="-110.72" font-family="Times,serif" font-size="9.00">Ray 7</text>
</g>
<!-- Ray 8 -->
<g id="node8" class="node">
<title>Ray 8</title>
<polygon fill="lightgray" stroke="black" points="448.45,-123.27 408.45,-123.27 408.45,-102.52 448.45,-102.52 448.45,-123.27"/>
<text xml:space="preserve" text-anchor="middle" x="428.45" y="-110.72" font-family="Times,serif" font-size="9.00">Ray 8</text>
</g>
<!-- Accel -->
<g id="node12" class="node">
<title>Accel</title>
<ellipse fill="lightblue" stroke="black" cx="428.45" cy="-27.22" rx="27.22" ry="27.22"/>
<text xml:space="preserve" text-anchor="middle" x="428.45" y="-25.05" font-family="Times,serif" font-size="9.00">Accel</text>
</g>
<!-- Ray 8&#45;&gt;Accel -->
<g id="edge1" class="edge">
<title>Ray 8&#45;&gt;Accel</title>
<path fill="none" stroke="green" stroke-width="1.18" d="M428.45,-102.3C428.45,-93.4 428.45,-79.57 428.45,-66.25"/>
<polygon fill="green" stroke="green" stroke-width="1.18" points="431.95,-66.61 428.45,-56.61 424.95,-66.61 431.95,-66.61"/>
</g>
<!-- Ray 9 -->
<g id="node9" class="node">
<title>Ray 9</title>
<polygon fill="lightgray" stroke="black" points="506.45,-123.27 466.45,-123.27 466.45,-102.52 506.45,-102.52 506.45,-123.27"/>
<text xml:space="preserve" text-anchor="middle" x="486.45" y="-110.72" font-family="Times,serif" font-size="9.00">Ray 9</text>
</g>
<!-- Speed -->
<g id="node10" class="node">
<title>Speed</title>
<polygon fill="lightgray" stroke="black" points="564.83,-123.27 524.08,-123.27 524.08,-102.52 564.83,-102.52 564.83,-123.27"/>
<text xml:space="preserve" text-anchor="middle" x="544.45" y="-110.72" font-family="Times,serif" font-size="9.00">Speed</text>
</g>
<!-- Steer -->
<g id="node11" class="node">
<title>Steer</title>
<ellipse fill="lightblue" stroke="black" cx="544.45" cy="-27.22" rx="26.69" ry="26.69"/>
<text xml:space="preserve" text-anchor="middle" x="544.45" y="-25.05" font-family="Times,serif" font-size="9.00">Steer</text>
</g>
<!-- Speed&#45;&gt;Steer -->
<g id="edge2" class="edge">
<title>Speed&#45;&gt;Steer</title>
<path fill="none" stroke="green" stroke-width="0.65" d="M544.45,-102.3C544.45,-93.09 544.45,-78.58 544.45,-64.84"/>
<polygon fill="green" stroke="green" stroke-width="0.65" points="547.95,-65.08 544.45,-55.08 540.95,-65.08 547.95,-65.08"/>
</g>
<!-- 933 -->
<g id="node13" class="node">
<title>933</title>
<ellipse fill="white" stroke="black" cx="605.45" cy="-112.9" rx="22.45" ry="22.45"/>
<text xml:space="preserve" text-anchor="middle" x="605.45" y="-110.72" font-family="Times,serif" font-size="9.00">933</text>
</g>
<!-- 934 -->
<g id="node14" class="node">
<title>934</title>
<ellipse fill="white" stroke="black" cx="668.45" cy="-112.9" rx="22.45" ry="22.45"/>
<text xml:space="preserve" text-anchor="middle" x="668.45" y="-110.72" font-family="Times,serif" font-size="9.00">934</text>
</g>
<!-- 5870 -->
<g id="node20" class="node">
<title>5870</title>
<ellipse fill="white" stroke="black" cx="668.45" cy="-27.22" rx="26.16" ry="26.16"/>
<text xml:space="preserve" text-anchor="middle" x="668.45" y="-25.05" font-family="Times,serif" font-size="9.00">5870</text>
</g>
<!-- 934&#45;&gt;5870 -->
<g id="edge3" class="edge">
<title>934&#45;&gt;5870</title>
<path fill="none" stroke="red" stroke-width="0.12" d="M668.45,-90.35C668.45,-82.26 668.45,-72.83 668.45,-63.8"/>
<polygon fill="red" stroke="red" stroke-width="0.12" points="671.95,-64.05 668.45,-54.05 664.95,-64.05 671.95,-64.05"/>
</g>
<!-- 935 -->
<g id="node15" class="node">
<title>935</title>
<ellipse fill="white" stroke="black" cx="731.45" cy="-112.9" rx="22.45" ry="22.45"/>
<text xml:space="preserve" text-anchor="middle" x="731.45" y="-110.72" font-family="Times,serif" font-size="9.00">935</text>
</g>
<!-- 937 -->
<g id="node16" class="node">
<title>937</title>
<ellipse fill="white" stroke="black" cx="794.45" cy="-112.9" rx="22.45" ry="22.45"/>
<text xml:space="preserve" text-anchor="middle" x="794.45" y="-110.72" font-family="Times,serif" font-size="9.00">937</text>
</g>
<!-- 938 -->
<g id="node17" class="node">
<title>938</title>
<ellipse fill="white" stroke="black" cx="857.45" cy="-112.9" rx="22.45" ry="22.45"/>
<text xml:space="preserve" text-anchor="middle" x="857.45" y="-110.72" font-family="Times,serif" font-size="9.00">938</text>
</g>
<!-- 940 -->
<g id="node19" class="node">
<title>940</title>
<ellipse fill="white" stroke="black" cx="920.45" cy="-112.9" rx="22.45" ry="22.45"/>
<text xml:space="preserve" text-anchor="middle" x="920.45" y="-110.72" font-family="Times,serif" font-size="9.00">940</text>
</g>
</g>
</svg>
