<?xml version="1.0" encoding="UTF-8" standalone="no"?>
<!DOCTYPE svg PUBLIC "-//W3C//DTD SVG 1.1//EN"
 "http://www.w3.org/Graphics/SVG/1.1/DTD/svg11.dtd">
<!-- Generated by graphviz version 14.0.2 (0)
 -->
<!-- Pages: 1 -->
<svg width="1015pt" height="143pt"
 viewBox="0.00 0.00 1015.00 143.00" xmlns="http://www.w3.org/2000/svg" xmlns:xlink="http://www.w3.org/1999/xlink">
<g id="graph0" class="graph" transform="scale(1 1) rotate(0) translate(4 139.35)">
<polygon fill="white" stroke="none" points="-4,4 -4,-139.35 1011.45,-139.35 1011.45,4 -4,4"/>
<!-- Ray 1 -->
<g id="node1" class="node">
<title>Ray 1</title>
<polygon fill="lightgray" stroke="black" points="40,-123.27 0,-123.27 0,-102.52 40,-102.52 40,-123.27"/>
<text xml:space="preserve" text-anchor="middle" x="20" y="-110.72" font-family="Times,serif" font-size="9.00">Ray 1</text>
</g>
<!-- Ray 2 -->
<g id="node2" class="node">
<title>Ray 2</title>
<polygon fill="lightgray" stroke="black" points="98,-123.27 58,-123.27 58,-102.52 98,-102.52 98,-123.27"/>
<text xml:space="preserve" text-anchor="middle" x="78" y="-110.72" font-family="Times,serif" font-size="9.00">Ray 2</text>
</g>
<!-- Ray 3 -->
<g id="node3" class="node">
<title>Ray 3</title>
<polygon fill="lightgray" stroke="black" points="156,-123.27 116,-123.27 116,-102.52 156,-102.52 156,-123.27"/>
<text xml:space="preserve" text-anchor="middle" x="136" y="-110.72" font-family="Times,serif" font-size="9.00">Ray 3</text>
</g>
<!-- Ray 4 -->
<g id="node4" class="node">
<title>Ray 4</title>
<polygon fill="lightgray" stroke="black" points="214,-123.27 174,-123.27 174,-102.52 214,-102.52 214,-123.27"/>
<text xml:space="preserve" text-anchor="middle" x="194" y="-110.72" font-family="Times,serif" font-size="9.00">Ray 4</text>
</g>
<!-- Ray 5 -->
<g id="node5" class="node">
<title>Ray 5</title>
<polygon fill="lightgray" stroke="black" points="272,-123.27 232,-123.27 232,-102.52 272,-102.52 272,-123.27"/>
<text xml:space="preserve" text-anchor="middle" x="252" y="-110.72" font-family="Times,serif" font-size="9.00">Ray 5</text>
</g>
<!-- Ray 6 -->
<g id="node6" class="node">
<title>Ray 6</title>
<polygon fill="lightgray" stroke="black" points="330,-123.27 290,-123.27 290,-102.52 330,-102.52 330,-123.27"/>
<text xml:space="preserve" text-anchor="middle" x="310" y="-110.72" font-family="Times,serif" font-size="9.00">Ray 6</text>
</g>
<!-- 5870 -->
<g id="node20" class="node">
<title>5870</title>
<ellipse fill="white" stroke="black" cx="310" cy="-27.22" rx="26.16" ry="26.16"/>
<text xml:space="preserve" text-anchor="middle" x="310" y="-25.05" font-family="Times,serif" font-size="9.00">5870</text>
</g>
<!-- Ray 6&#45;&gt;5870 -->
<g id="edge5" class="edge">
<title>Ray 6&#45;&gt;5870</title>
<path fill="none" stroke="green" stroke-width="0.45" d="M310,-102.3C310,-92.93 310,-78.08 310,-64.12"/>
<polygon fill="green" stroke="green" stroke-width="0.45" points="313.5,-64.42 310,-54.42 306.5,-64.42 313.5,-64.42"/>
</g>
<!-- Ray 7 -->
<g id="node7" class="node">
<title>Ray 7</title>
<polygon fill="lightgray" stroke="black" points="455,-123.27 415,-123.27 415,-102.52 455,-102.52 455,-123.27"/>
<text xml:space="preserve" text-anchor="middle" x="435" y="-110.72" font-family="Times,serif" font-size="9.00">Ray 7</text>
</g>
<!-- Ray 8 -->
<g id="node8" class="node">
<title>Ray 8</title>
<polygon fill="lightgray" stroke="black" points="513,-123.27 473,-123.27 473,-102.52 513,-102.52 513,-123.27"/>
<text xml:space="preserve" text-anchor="middle" x="493" y="-110.72" font-family="Times,serif" font-size="9.00">Ray 8</text>
</g>
<!-- Accel -->
<g id="node12" class="node">
<title>Accel</title>
<ellipse fill="lightblue" stroke="black" cx="493" cy="-27.22" rx="27.22" ry="27.22"/>
<text xml:space="preserve" text-anchor="middle" x="493" y="-25.05" font-family="Times,serif" font-size="9.00">Accel</text>
</g>
<!-- Ray 8&#45;&gt;Accel -->
<g id="edge1" class="edge">
<title>Ray 8&#45;&gt;Accel</title>
<path fill="none" stroke="green" stroke-width="1.04" d="M493,-102.3C493,-93.4 493,-79.57 493,-66.25"/>
<polygon fill="green" stroke="green" stroke-width="1.04" points="496.5,-66.39 493,-56.39 489.5,-66.39 496.5,-66.39"/>
</g>
<!-- Ray 9 -->
<g id="node9" class="node">
<title>Ray 9</title>
<polygon fill="lightgray" stroke="black" points="571,-123.27 531,-123.27 531,-102.52 571,-102.52 571,-123.27"/>
<text xml:space="preserve" text-anchor="middle" x="551" y="-110.72" font-family="Times,serif" font-size="9.00">Ray 9</text>
</g>
<!-- Speed -->
<g id="node10" class="node">
<title>Speed</title>
<polygon fill="lightgray" stroke="black" points="629.38,-123.27 588.62,-123.27 588.62,-102.52 629.38,-102.52 629.38,-123.27"/>
<text xml:space="preserve" text-anchor="middle" x="609" y="-110.72" font-family="Times,serif" font-size="9.00">Speed</text>
</g>
<!-- Steer -->
<g id="node11" class="node">
<title>Steer</title>
<ellipse fill="lightblue" stroke="black" cx="609" cy="-27.22" rx="26.69" ry="26.69"/>
<text xml:space="preserve" text-anchor="middle" x="609" y="-25.05" font-family="Times,serif" font-size="9.00">Steer</text>
</g>
<!-- Speed&#45;&gt;Steer -->
<g id="edge2" class="edge">
<title>Speed&#45;&gt;Steer</title>
<path fill="none" stroke="green" stroke-width="1.14" d="M609,-102.3C609,-93.27 609,-79.15 609,-65.66"/>
<polygon fill="green" stroke="green" stroke-width="1.14" points="612.5,-65.82 609,-55.82 605.5,-65.82 612.5,-65.82"/>
</g>
<!-- 933 -->
<g id="node13" class="node">
<title>933</title>
<ellipse fill="white" stroke="black" cx="670" cy="-112.9" rx="22.45" ry="22.45"/>
<text xml:space="preserve" text-anchor="middle" x="670" y="-110.72" font-family="Times,serif" font-size="9.00">933</text>
</g>
<!-- 934 -->
<g id="node14" class="node">
<title>934</title>
<ellipse fill="white" stroke="black" cx="375" cy="-112.9" rx="22.45" ry="22.45"/>
<text xml:space="preserve" text-anchor="middle" x="375" y="-110.72" font-family="Times,serif" font-size="9.00">934</text>
</g>
<!-- 934&#45;&gt;5870 -->
<g id="edge3" class="edge">
<title>934&#45;&gt;5870</title>
<path fill="none" stroke="red" stroke-width="0.34" stroke-dasharray="1,5" d="M361.53,-94.56C352.99,-83.57 341.74,-69.09 331.93,-56.46"/>
<polygon fill="red" stroke="red" stroke-width="0.34" points="334.95,-54.64 326.05,-48.89 329.42,-58.93 334.95,-54.64"/>
</g>
<!-- 7086 -->
<g id="node21" class="node">
<title>7086</title>
<ellipse fill="white" stroke="black" cx="380" cy="-27.22" rx="26.16" ry="26.16"/>
<text xml:space="preserve" text-anchor="middle" x="380" y="-25.05" font-family="Times,serif" font-size="9.00">7086</text>
</g>
<!-- 934&#45;&gt;7086 -->
<g id="edge4" class="edge">
<title>934&#45;&gt;7086</title>
<path fill="none" stroke="green" stroke-width="0.28" d="M376.29,-90.35C376.77,-82.28 377.33,-72.87 377.87,-63.86"/>
<polygon fill="green" stroke="green" stroke-width="0.28" points="381.36,-64.17 378.46,-53.98 374.37,-63.75 381.36,-64.17"/>
</g>
<!-- 935 -->
<g id="node15" class="node">
<title>935</title>
<ellipse fill="white" stroke="black" cx="733" cy="-112.9" rx="22.45" ry="22.45"/>
<text xml:space="preserve" text-anchor="middle" x="733" y="-110.72" font-family="Times,serif" font-size="9.00">935</text>
</g>
<!-- 937 -->
<g id="node16" class="node">
<title>937</title>
<ellipse fill="white" stroke="black" cx="796" cy="-112.9" rx="22.45" ry="22.45"/>
<text xml:space="preserve" text-anchor="middle" x="796" y="-110.72" font-family="Times,serif" font-size="9.00">937</text>
</g>
<!-- 938 -->
<g id="node17" class="node">
<title>938</title>
<ellipse fill="white" stroke="black" cx="859" cy="-112.9" rx="22.45" ry="22.45"/>
<text xml:space="preserve" text-anchor="middle" x="859" y="-110.72" font-family="Times,serif" font-size="9.00">938</text>
</g>
<!-- 939 -->
<g id="node18" class="node">
<title>939</title>
<ellipse fill="white" stroke="black" cx="922" cy="-112.9" rx="22.45" ry="22.45"/>
<text xml:space="preserve" text-anchor="middle" x="922" y="-110.72" font-family="Times,serif" font-size="9.00">939</text>
</g>
<!-- 940 -->
<g id="node19" class="node">
<title>940</title>
<ellipse fill="white" stroke="black" cx="985" cy="-112.9" rx="22.45" ry="22.45"/>
<text xml:space="preserve" text-anchor="middle" x="985" y="-110.72" font-family="Times,serif" font-size="9.00">940</text>
</g>
</g>
</svg>
