<?xml version="1.0" encoding="UTF-8" standalone="no"?>
<!DOCTYPE svg PUBLIC "-//W3C//DTD SVG 1.1//EN"
 "http://www.w3.org/Graphics/SVG/1.1/DTD/svg11.dtd">
<!-- Generated by graphviz version 14.0.2 (0)
 -->
<!-- Pages: 1 -->
<svg width="1271pt" height="152pt"
 viewBox="0.00 0.00 1271.00 152.00" xmlns="http://www.w3.org/2000/svg" xmlns:xlink="http://www.w3.org/1999/xlink">
<g id="graph0" class="graph" transform="scale(1 1) rotate(0) translate(4 147.83)">
<polygon fill="white" stroke="none" points="-4,4 -4,-147.83 1267.45,-147.83 1267.45,4 -4,4"/>
<!-- Ray 1 -->
<g id="node1" class="node">
<title>Ray 1</title>
<polygon fill="lightgray" stroke="black" points="40,-127.52 0,-127.52 0,-106.77 40,-106.77 40,-127.52"/>
<text xml:space="preserve" text-anchor="middle" x="20" y="-114.97" font-family="Times,serif" font-size="9.00">Ray 1</text>
</g>
<!-- Ray 2 -->
<g id="node2" class="node">
<title>Ray 2</title>
<polygon fill="lightgray" stroke="black" points="98,-127.52 58,-127.52 58,-106.77 98,-106.77 98,-127.52"/>
<text xml:space="preserve" text-anchor="middle" x="78" y="-114.97" font-family="Times,serif" font-size="9.00">Ray 2</text>
</g>
<!-- Ray 3 -->
<g id="node3" class="node">
<title>Ray 3</title>
<polygon fill="lightgray" stroke="black" points="156,-127.52 116,-127.52 116,-106.77 156,-106.77 156,-127.52"/>
<text xml:space="preserve" text-anchor="middle" x="136" y="-114.97" font-family="Times,serif" font-size="9.00">Ray 3</text>
</g>
<!-- Ray 4 -->
<g id="node4" class="node">
<title>Ray 4</title>
<polygon fill="lightgray" stroke="black" points="214,-127.52 174,-127.52 174,-106.77 214,-106.77 214,-127.52"/>
<text xml:space="preserve" text-anchor="middle" x="194" y="-114.97" font-family="Times,serif" font-size="9.00">Ray 4</text>
</g>
<!-- Ray 5 -->
<g id="node5" class="node">
<title>Ray 5</title>
<polygon fill="lightgray" stroke="black" points="272,-127.52 232,-127.52 232,-106.77 272,-106.77 272,-127.52"/>
<text xml:space="preserve" text-anchor="middle" x="252" y="-114.97" font-family="Times,serif" font-size="9.00">Ray 5</text>
</g>
<!-- Ray 6 -->
<g id="node6" class="node">
<title>Ray 6</title>
<polygon fill="lightgray" stroke="black" points="330,-127.52 290,-127.52 290,-106.77 330,-106.77 330,-127.52"/>
<text xml:space="preserve" text-anchor="middle" x="310" y="-114.97" font-family="Times,serif" font-size="9.00">Ray 6</text>
</g>
<!-- Ray 7 -->
<g id="node7" class="node">
<title>Ray 7</title>
<polygon fill="lightgray" stroke="black" points="388,-127.52 348,-127.52 348,-106.77 388,-106.77 388,-127.52"/>
<text xml:space="preserve" text-anchor="middle" x="368" y="-114.97" font-family="Times,serif" font-size="9.00">Ray 7</text>
</g>
<!-- Ray 8 -->
<g id="node8" class="node">
<title>Ray 8</title>
<polygon fill="lightgray" stroke="black" points="446,-127.52 406,-127.52 406,-106.77 446,-106.77 446,-127.52"/>
<text xml:space="preserve" text-anchor="middle" x="426" y="-114.97" font-family="Times,serif" font-size="9.00">Ray 8</text>
</g>
<!-- Ray 9 -->
<g id="node9" class="node">
<title>Ray 9</title>
<polygon fill="lightgray" stroke="black" points="504,-127.52 464,-127.52 464,-106.77 504,-106.77 504,-127.52"/>
<text xml:space="preserve" text-anchor="middle" x="484" y="-114.97" font-family="Times,serif" font-size="9.00">Ray 9</text>
</g>
<!-- Speed -->
<g id="node10" class="node">
<title>Speed</title>
<polygon fill="lightgray" stroke="black" points="562.38,-127.52 521.62,-127.52 521.62,-106.77 562.38,-106.77 562.38,-127.52"/>
<text xml:space="preserve" text-anchor="middle" x="542" y="-114.97" font-family="Times,serif" font-size="9.00">Speed</text>
</g>
<!-- Accel -->
<g id="node12" class="node">
<title>Accel</title>
<ellipse fill="lightblue" stroke="black" cx="542" cy="-27.22" rx="27.22" ry="27.22"/>
<text xml:space="preserve" text-anchor="middle" x="542" y="-25.05" font-family="Times,serif" font-size="9.00">Accel</text>
</g>
<!-- Speed&#45;&gt;Accel -->
<g id="edge1" class="edge">
<title>Speed&#45;&gt;Accel</title>
<path fill="none" stroke="red" stroke-width="0.34" d="M542,-106.4C542,-96.37 542,-80.13 542,-65.04"/>
<polygon fill="red" stroke="red" stroke-width="0.34" points="545.5,-65.38 542,-55.38 538.5,-65.38 545.5,-65.38"/>
</g>
<!-- Steer -->
<g id="node11" class="node">
<title>Steer</title>
<ellipse fill="lightblue" stroke="black" cx="607" cy="-117.14" rx="26.69" ry="26.69"/>
<text xml:space="preserve" text-anchor="middle" x="607" y="-114.97" font-family="Times,serif" font-size="9.00">Steer</text>
</g>
<!-- 232 -->
<g id="node13" class="node">
<title>232</title>
<ellipse fill="white" stroke="black" cx="674" cy="-117.14" rx="22.45" ry="22.45"/>
<text xml:space="preserve" text-anchor="middle" x="674" y="-114.97" font-family="Times,serif" font-size="9.00">232</text>
</g>
<!-- 233 -->
<g id="node14" class="node">
<title>233</title>
<ellipse fill="white" stroke="black" cx="737" cy="-117.14" rx="22.45" ry="22.45"/>
<text xml:space="preserve" text-anchor="middle" x="737" y="-114.97" font-family="Times,serif" font-size="9.00">233</text>
</g>
<!-- 234 -->
<g id="node15" class="node">
<title>234</title>
<ellipse fill="white" stroke="black" cx="800" cy="-117.14" rx="22.45" ry="22.45"/>
<text xml:space="preserve" text-anchor="middle" x="800" y="-114.97" font-family="Times,serif" font-size="9.00">234</text>
</g>
<!-- 235 -->
<g id="node16" class="node">
<title>235</title>
<ellipse fill="white" stroke="black" cx="863" cy="-117.14" rx="22.45" ry="22.45"/>
<text xml:space="preserve" text-anchor="middle" x="863" y="-114.97" font-family="Times,serif" font-size="9.00">235</text>
</g>
<!-- 236 -->
<g id="node17" class="node">
<title>236</title>
<ellipse fill="white" stroke="black" cx="926" cy="-117.14" rx="22.45" ry="22.45"/>
<text xml:space="preserve" text-anchor="middle" x="926" y="-114.97" font-family="Times,serif" font-size="9.00">236</text>
</g>
<!-- 237 -->
<g id="node18" class="node">
<title>237</title>
<ellipse fill="white" stroke="black" cx="989" cy="-117.14" rx="22.45" ry="22.45"/>
<text xml:space="preserve" text-anchor="middle" x="989" y="-114.97" font-family="Times,serif" font-size="9.00">237</text>
</g>
<!-- 238 -->
<g id="node19" class="node">
<title>238</title>
<ellipse fill="white" stroke="black" cx="1052" cy="-117.14" rx="22.45" ry="22.45"/>
<text xml:space="preserve" text-anchor="middle" x="1052" y="-114.97" font-family="Times,serif" font-size="9.00">238</text>
</g>
<!-- 239 -->
<g id="node20" class="node">
<title>239</title>
<ellipse fill="white" stroke="black" cx="1115" cy="-117.14" rx="22.45" ry="22.45"/>
<text xml:space="preserve" text-anchor="middle" x="1115" y="-114.97" font-family="Times,serif" font-size="9.00">239</text>
</g>
<!-- 240 -->
<g id="node21" class="node">
<title>240</title>
<ellipse fill="white" stroke="black" cx="1178" cy="-117.14" rx="22.45" ry="22.45"/>
<text xml:space="preserve" text-anchor="middle" x="1178" y="-114.97" font-family="Times,serif" font-size="9.00">240</text>
</g>
<!-- 241 -->
<g id="node22" class="node">
<title>241</title>
<ellipse fill="white" stroke="black" cx="1241" cy="-117.14" rx="22.45" ry="22.45"/>
<text xml:space="preserve" text-anchor="middle" x="1241" y="-114.97" font-family="Times,serif" font-size="9.00">241</text>
</g>
</g>
</svg>
