<?xml version="1.0" encoding="UTF-8" standalone="no"?>
<!DOCTYPE svg PUBLIC "-//W3C//DTD SVG 1.1//EN"
 "http://www.w3.org/Graphics/SVG/1.1/DTD/svg11.dtd">
<!-- Generated by graphviz version 14.0.2 (0)
 -->
<!-- Pages: 1 -->
<svg width="594pt" height="313pt"
 viewBox="0.00 0.00 594.00 313.00" xmlns="http://www.w3.org/2000/svg" xmlns:xlink="http://www.w3.org/1999/xlink">
<g id="graph0" class="graph" transform="scale(1 1) rotate(0) translate(4 308.58)">
<polygon fill="white" stroke="none" points="-4,4 -4,-308.58 589.67,-308.58 589.67,4 -4,4"/>
<!-- Ray 1 -->
<g id="node1" class="node">
<title>Ray 1</title>
<polygon fill="lightgray" stroke="black" points="348.22,-292.5 308.22,-292.5 308.22,-271.75 348.22,-271.75 348.22,-292.5"/>
<text xml:space="preserve" text-anchor="middle" x="328.22" y="-279.95" font-family="Times,serif" font-size="9.00">Ray 1</text>
</g>
<!-- Ray 2 -->
<g id="node2" class="node">
<title>Ray 2</title>
<polygon fill="lightgray" stroke="black" points="182.22,-211.6 142.22,-211.6 142.22,-190.85 182.22,-190.85 182.22,-211.6"/>
<text xml:space="preserve" text-anchor="middle" x="162.22" y="-199.05" font-family="Times,serif" font-size="9.00">Ray 2</text>
</g>
<!-- Accel -->
<g id="node12" class="node">
<title>Accel</title>
<ellipse fill="lightblue" stroke="black" cx="27.22" cy="-27.22" rx="27.22" ry="27.22"/>
<text xml:space="preserve" text-anchor="middle" x="27.22" y="-25.05" font-family="Times,serif" font-size="9.00">Accel</text>
</g>
<!-- Ray 2&#45;&gt;Accel -->
<g id="edge1" class="edge">
<title>Ray 2&#45;&gt;Accel</title>
<path fill="none" stroke="red" stroke-width="0.31" stroke-dasharray="1,5" d="M150.97,-190.49C145.82,-186.43 139.49,-181.93 133.22,-178.77 84.25,-154.11 47.85,-186.84 15.22,-142.77 -1.82,-119.75 3.97,-86.62 12.37,-61.91"/>
<polygon fill="red" stroke="red" stroke-width="0.31" points="15.61,-63.26 15.78,-52.67 9.04,-60.84 15.61,-63.26"/>
</g>
<!-- 982 -->
<g id="node15" class="node">
<title>982</title>
<ellipse fill="white" stroke="black" cx="386.22" cy="-116.61" rx="22.45" ry="22.45"/>
<text xml:space="preserve" text-anchor="middle" x="386.22" y="-114.44" font-family="Times,serif" font-size="9.00">982</text>
</g>
<!-- Ray 2&#45;&gt;982 -->
<g id="edge18" class="edge">
<title>Ray 2&#45;&gt;982</title>
<path fill="none" stroke="red" stroke-width="0.26" d="M182.67,-196.87C219.03,-190.32 296.63,-173.69 355.22,-142.77 357.48,-141.58 359.72,-140.22 361.91,-138.75"/>
<polygon fill="red" stroke="red" stroke-width="0.26" points="363.76,-141.74 369.71,-132.98 359.59,-136.12 363.76,-141.74"/>
</g>
<!-- 5208 -->
<g id="node17" class="node">
<title>5208</title>
<ellipse fill="white" stroke="black" cx="170.22" cy="-27.22" rx="26.16" ry="26.16"/>
<text xml:space="preserve" text-anchor="middle" x="170.22" y="-25.05" font-family="Times,serif" font-size="9.00">5208</text>
</g>
<!-- Ray 2&#45;&gt;5208 -->
<g id="edge17" class="edge">
<title>Ray 2&#45;&gt;5208</title>
<path fill="none" stroke="green" stroke-width="0.49" d="M162.68,-190.48C163.79,-166.64 166.68,-104.39 168.55,-64.29"/>
<polygon fill="green" stroke="green" stroke-width="0.49" points="172.04,-64.51 169.01,-54.35 165.05,-64.18 172.04,-64.51"/>
</g>
<!-- 5021 -->
<g id="node19" class="node">
<title>5021</title>
<ellipse fill="white" stroke="black" cx="108.22" cy="-116.61" rx="26.16" ry="26.16"/>
<text xml:space="preserve" text-anchor="middle" x="108.22" y="-114.44" font-family="Times,serif" font-size="9.00">5021</text>
</g>
<!-- Ray 2&#45;&gt;5021 -->
<g id="edge2" class="edge">
<title>Ray 2&#45;&gt;5021</title>
<path fill="none" stroke="red" stroke-width="0.9" d="M155.82,-190.42C149.08,-180.11 138.13,-163.36 128.43,-148.52"/>
<polygon fill="red" stroke="red" stroke-width="0.9" points="131.44,-146.73 123.04,-140.27 125.58,-150.56 131.44,-146.73"/>
</g>
<!-- Ray 3 -->
<g id="node3" class="node">
<title>Ray 3</title>
<polygon fill="lightgray" stroke="black" points="230.22,-126.99 190.22,-126.99 190.22,-106.24 230.22,-106.24 230.22,-126.99"/>
<text xml:space="preserve" text-anchor="middle" x="210.22" y="-114.44" font-family="Times,serif" font-size="9.00">Ray 3</text>
</g>
<!-- 5343 -->
<g id="node13" class="node">
<title>5343</title>
<ellipse fill="white" stroke="black" cx="254.22" cy="-27.22" rx="26.16" ry="26.16"/>
<text xml:space="preserve" text-anchor="middle" x="254.22" y="-25.05" font-family="Times,serif" font-size="9.00">5343</text>
</g>
<!-- Ray 3&#45;&gt;5343 -->
<g id="edge14" class="edge">
<title>Ray 3&#45;&gt;5343</title>
<path fill="none" stroke="green" stroke-width="0.15" d="M215.1,-105.92C220.69,-94.83 230.13,-76.07 238.34,-59.76"/>
<polygon fill="green" stroke="green" stroke-width="0.15" points="241.27,-61.73 242.64,-51.23 235.02,-58.59 241.27,-61.73"/>
</g>
<!-- Ray 3&#45;&gt;5208 -->
<g id="edge7" class="edge">
<title>Ray 3&#45;&gt;5208</title>
<path fill="none" stroke="green" stroke-width="0.58" d="M205.79,-105.92C200.84,-95.11 192.55,-77.01 185.22,-61"/>
<polygon fill="green" stroke="green" stroke-width="0.58" points="188.53,-59.82 181.19,-52.18 182.17,-62.73 188.53,-59.82"/>
</g>
<!-- Ray 4 -->
<g id="node4" class="node">
<title>Ray 4</title>
<polygon fill="lightgray" stroke="black" points="64.22,-126.99 24.22,-126.99 24.22,-106.24 64.22,-106.24 64.22,-126.99"/>
<text xml:space="preserve" text-anchor="middle" x="44.22" y="-114.44" font-family="Times,serif" font-size="9.00">Ray 4</text>
</g>
<!-- Steer -->
<g id="node11" class="node">
<title>Steer</title>
<ellipse fill="lightblue" stroke="black" cx="99.22" cy="-27.22" rx="26.69" ry="26.69"/>
<text xml:space="preserve" text-anchor="middle" x="99.22" y="-25.05" font-family="Times,serif" font-size="9.00">Steer</text>
</g>
<!-- Ray 4&#45;&gt;Steer -->
<g id="edge10" class="edge">
<title>Ray 4&#45;&gt;Steer</title>
<path fill="none" stroke="red" stroke-width="0.23" d="M50.32,-105.92C57.46,-94.57 69.65,-75.2 80.08,-58.65"/>
<polygon fill="red" stroke="red" stroke-width="0.23" points="82.78,-60.92 85.15,-50.59 76.86,-57.19 82.78,-60.92"/>
</g>
<!-- Ray 4&#45;&gt;Accel -->
<g id="edge11" class="edge">
<title>Ray 4&#45;&gt;Accel</title>
<path fill="none" stroke="green" stroke-width="1.07" d="M42.34,-105.92C40.42,-96.08 37.34,-80.21 34.45,-65.37"/>
<polygon fill="green" stroke="green" stroke-width="1.07" points="37.96,-65.07 32.61,-55.92 31.09,-66.4 37.96,-65.07"/>
</g>
<!-- Ray 5 -->
<g id="node5" class="node">
<title>Ray 5</title>
<polygon fill="lightgray" stroke="black" points="124.22,-211.6 84.22,-211.6 84.22,-190.85 124.22,-190.85 124.22,-211.6"/>
<text xml:space="preserve" text-anchor="middle" x="104.22" y="-199.05" font-family="Times,serif" font-size="9.00">Ray 5</text>
</g>
<!-- Ray 5&#45;&gt;5021 -->
<g id="edge15" class="edge">
<title>Ray 5&#45;&gt;5021</title>
<path fill="none" stroke="green" stroke-width="0.53" d="M104.7,-190.42C105.14,-181.25 105.83,-166.97 106.49,-153.48"/>
<polygon fill="green" stroke="green" stroke-width="0.53" points="109.97,-153.91 106.96,-143.75 102.98,-153.57 109.97,-153.91"/>
</g>
<!-- Ray 6 -->
<g id="node6" class="node">
<title>Ray 6</title>
<polygon fill="lightgray" stroke="black" points="406.22,-292.5 366.22,-292.5 366.22,-271.75 406.22,-271.75 406.22,-292.5"/>
<text xml:space="preserve" text-anchor="middle" x="386.22" y="-279.95" font-family="Times,serif" font-size="9.00">Ray 6</text>
</g>
<!-- 990 -->
<g id="node20" class="node">
<title>990</title>
<ellipse fill="white" stroke="black" cx="386.22" cy="-201.22" rx="22.45" ry="22.45"/>
<text xml:space="preserve" text-anchor="middle" x="386.22" y="-199.05" font-family="Times,serif" font-size="9.00">990</text>
</g>
<!-- Ray 6&#45;&gt;990 -->
<g id="edge16" class="edge">
<title>Ray 6&#45;&gt;990</title>
<path fill="none" stroke="red" stroke-width="0.54" d="M386.22,-271.45C386.22,-262.26 386.22,-247.9 386.22,-234.64"/>
<polygon fill="red" stroke="red" stroke-width="0.54" points="389.72,-234.72 386.22,-224.72 382.72,-234.72 389.72,-234.72"/>
</g>
<!-- Ray 7 -->
<g id="node7" class="node">
<title>Ray 7</title>
<polygon fill="lightgray" stroke="black" points="464.22,-292.5 424.22,-292.5 424.22,-271.75 464.22,-271.75 464.22,-292.5"/>
<text xml:space="preserve" text-anchor="middle" x="444.22" y="-279.95" font-family="Times,serif" font-size="9.00">Ray 7</text>
</g>
<!-- Ray 8 -->
<g id="node8" class="node">
<title>Ray 8</title>
<polygon fill="lightgray" stroke="black" points="346.22,-126.99 306.22,-126.99 306.22,-106.24 346.22,-106.24 346.22,-126.99"/>
<text xml:space="preserve" text-anchor="middle" x="326.22" y="-114.44" font-family="Times,serif" font-size="9.00">Ray 8</text>
</g>
<!-- Ray 8&#45;&gt;5343 -->
<g id="edge13" class="edge">
<title>Ray 8&#45;&gt;5343</title>
<path fill="none" stroke="red" stroke-width="0.22" d="M318.24,-105.92C308.34,-93.9 291.02,-72.89 276.9,-55.74"/>
<polygon fill="red" stroke="red" stroke-width="0.22" points="279.94,-53.93 270.88,-48.44 274.54,-58.38 279.94,-53.93"/>
</g>
<!-- 984 -->
<g id="node16" class="node">
<title>984</title>
<ellipse fill="white" stroke="black" cx="436.22" cy="-27.22" rx="22.45" ry="22.45"/>
<text xml:space="preserve" text-anchor="middle" x="436.22" y="-25.05" font-family="Times,serif" font-size="9.00">984</text>
</g>
<!-- Ray 8&#45;&gt;984 -->
<g id="edge4" class="edge">
<title>Ray 8&#45;&gt;984</title>
<path fill="none" stroke="green" stroke-width="0.29" d="M337.11,-105.89C342.49,-101.16 349.13,-95.42 355.22,-90.45 373.35,-75.64 394.32,-59.56 410.38,-47.46"/>
<polygon fill="green" stroke="green" stroke-width="0.29" points="412.04,-50.59 417.94,-41.78 407.84,-44.99 412.04,-50.59"/>
</g>
<!-- Ray 9 -->
<g id="node9" class="node">
<title>Ray 9</title>
<polygon fill="lightgray" stroke="black" points="288.22,-126.99 248.22,-126.99 248.22,-106.24 288.22,-106.24 288.22,-126.99"/>
<text xml:space="preserve" text-anchor="middle" x="268.22" y="-114.44" font-family="Times,serif" font-size="9.00">Ray 9</text>
</g>
<!-- Ray 9&#45;&gt;5343 -->
<g id="edge9" class="edge">
<title>Ray 9&#45;&gt;5343</title>
<path fill="none" stroke="red" stroke-width="0.19" d="M266.67,-105.92C265.01,-95.57 262.29,-78.55 259.81,-63.08"/>
<polygon fill="red" stroke="red" stroke-width="0.19" points="263.31,-62.82 258.27,-53.49 256.4,-63.92 263.31,-62.82"/>
</g>
<!-- Speed -->
<g id="node10" class="node">
<title>Speed</title>
<polygon fill="lightgray" stroke="black" points="522.6,-292.5 481.85,-292.5 481.85,-271.75 522.6,-271.75 522.6,-292.5"/>
<text xml:space="preserve" text-anchor="middle" x="502.22" y="-279.95" font-family="Times,serif" font-size="9.00">Speed</text>
</g>
<!-- 7790 -->
<g id="node14" class="node">
<title>7790</title>
<ellipse fill="white" stroke="black" cx="490.22" cy="-116.61" rx="26.16" ry="26.16"/>
<text xml:space="preserve" text-anchor="middle" x="490.22" y="-114.44" font-family="Times,serif" font-size="9.00">7790</text>
</g>
<!-- 7790&#45;&gt;984 -->
<g id="edge21" class="edge">
<title>7790&#45;&gt;984</title>
<path fill="none" stroke="red" stroke-width="0.43" d="M476.88,-94.01C469.76,-82.49 460.92,-68.19 453.31,-55.87"/>
<polygon fill="red" stroke="red" stroke-width="0.43" points="456.35,-54.13 448.11,-47.47 450.39,-57.81 456.35,-54.13"/>
</g>
<!-- 988 -->
<g id="node18" class="node">
<title>988</title>
<ellipse fill="white" stroke="black" cx="563.22" cy="-282.13" rx="22.45" ry="22.45"/>
<text xml:space="preserve" text-anchor="middle" x="563.22" y="-279.95" font-family="Times,serif" font-size="9.00">988</text>
</g>
<!-- 5021&#45;&gt;Steer -->
<g id="edge5" class="edge">
<title>5021&#45;&gt;Steer</title>
<path fill="none" stroke="green" stroke-width="0.61" d="M105.62,-90.33C104.8,-82.32 103.87,-73.3 102.98,-64.67"/>
<polygon fill="green" stroke="green" stroke-width="0.61" points="106.48,-64.55 101.98,-54.97 99.52,-65.27 106.48,-64.55"/>
</g>
<!-- 5021&#45;&gt;Accel -->
<g id="edge3" class="edge">
<title>5021&#45;&gt;Accel</title>
<path fill="none" stroke="red" stroke-width="0.33" stroke-dasharray="1,5" d="M90.65,-96.65C79.45,-84.56 64.76,-68.71 52.33,-55.31"/>
<polygon fill="red" stroke="red" stroke-width="0.33" points="55.03,-53.07 45.66,-48.12 49.9,-57.83 55.03,-53.07"/>
</g>
<!-- 5021&#45;&gt;5343 -->
<g id="edge8" class="edge">
<title>5021&#45;&gt;5343</title>
<path fill="none" stroke="green" stroke-width="0.29" d="M130.4,-102.34C155.05,-87.58 195.06,-63.63 222.9,-46.97"/>
<polygon fill="green" stroke="green" stroke-width="0.29" points="224.69,-49.98 231.47,-41.84 221.09,-43.98 224.69,-49.98"/>
</g>
<!-- 5021&#45;&gt;5208 -->
<g id="edge6" class="edge">
<title>5021&#45;&gt;5208</title>
<path fill="none" stroke="red" stroke-width="0.25" d="M122.92,-94.9C130.89,-83.66 140.87,-69.59 149.61,-57.28"/>
<polygon fill="red" stroke="red" stroke-width="0.25" points="152.27,-59.57 155.2,-49.39 146.56,-55.52 152.27,-59.57"/>
</g>
<!-- 990&#45;&gt;982 -->
<g id="edge12" class="edge">
<title>990&#45;&gt;982</title>
<path fill="none" stroke="red" stroke-width="0.23" d="M386.22,-178.52C386.22,-169.67 386.22,-159.26 386.22,-149.58"/>
<polygon fill="red" stroke="red" stroke-width="0.23" points="389.72,-149.8 386.22,-139.8 382.72,-149.8 389.72,-149.8"/>
</g>
<!-- 991 -->
<g id="node21" class="node">
<title>991</title>
<ellipse fill="white" stroke="black" cx="469.22" cy="-201.22" rx="22.45" ry="22.45"/>
<text xml:space="preserve" text-anchor="middle" x="469.22" y="-199.05" font-family="Times,serif" font-size="9.00">991</text>
</g>
<!-- 991&#45;&gt;7790 -->
<g id="edge20" class="edge">
<title>991&#45;&gt;7790</title>
<path fill="none" stroke="red" stroke-width="0.16" d="M474.63,-178.95C476.72,-170.73 479.16,-161.12 481.49,-151.98"/>
<polygon fill="red" stroke="red" stroke-width="0.16" points="484.81,-153.12 483.88,-142.57 478.02,-151.4 484.81,-153.12"/>
</g>
<!-- 991&#45;&gt;984 -->
<g id="edge19" class="edge">
<title>991&#45;&gt;984</title>
<path fill="none" stroke="red" stroke-width="0.39" stroke-dasharray="1,5" d="M463.66,-179.03C460.92,-168.22 457.69,-154.84 455.22,-142.77 449.54,-114.98 444.36,-83.13 440.86,-60.08"/>
<polygon fill="red" stroke="red" stroke-width="0.39" points="444.35,-59.81 439.41,-50.44 437.43,-60.85 444.35,-59.81"/>
</g>
</g>
</svg>
