<?xml version="1.0" encoding="UTF-8" standalone="no"?>
<!DOCTYPE svg PUBLIC "-//W3C//DTD SVG 1.1//EN"
 "http://www.w3.org/Graphics/SVG/1.1/DTD/svg11.dtd">
<!-- Generated by graphviz version 14.0.2 (0)
 -->
<!-- Pages: 1 -->
<svg width="1151pt" height="143pt"
 viewBox="0.00 0.00 1151.00 143.00" xmlns="http://www.w3.org/2000/svg" xmlns:xlink="http://www.w3.org/1999/xlink">
<g id="graph0" class="graph" transform="scale(1 1) rotate(0) translate(4 139.35)">
<polygon fill="white" stroke="none" points="-4,4 -4,-139.35 1147.45,-139.35 1147.45,4 -4,4"/>
<!-- Ray 1 -->
<g id="node1" class="node">
<title>Ray 1</title>
<polygon fill="lightgray" stroke="black" points="40,-123.27 0,-123.27 0,-102.52 40,-102.52 40,-123.27"/>
<text xml:space="preserve" text-anchor="middle" x="20" y="-110.72" font-family="Times,serif" font-size="9.00">Ray 1</text>
</g>
<!-- Ray 2 -->
<g id="node2" class="node">
<title>Ray 2</title>
<polygon fill="lightgray" stroke="black" points="98,-123.27 58,-123.27 58,-102.52 98,-102.52 98,-123.27"/>
<text xml:space="preserve" text-anchor="middle" x="78" y="-110.72" font-family="Times,serif" font-size="9.00">Ray 2</text>
</g>
<!-- Ray 3 -->
<g id="node3" class="node">
<title>Ray 3</title>
<polygon fill="lightgray" stroke="black" points="156,-123.27 116,-123.27 116,-102.52 156,-102.52 156,-123.27"/>
<text xml:space="preserve" text-anchor="middle" x="136" y="-110.72" font-family="Times,serif" font-size="9.00">Ray 3</text>
</g>
<!-- 932 -->
<g id="node13" class="node">
<title>932</title>
<ellipse fill="white" stroke="black" cx="136" cy="-27.22" rx="22.45" ry="22.45"/>
<text xml:space="preserve" text-anchor="middle" x="136" y="-25.05" font-family="Times,serif" font-size="9.00">932</text>
</g>
<!-- Ray 3&#45;&gt;932 -->
<g id="edge2" class="edge">
<title>Ray 3&#45;&gt;932</title>
<path fill="none" stroke="green" stroke-width="0.3" d="M136,-102.3C136,-91.98 136,-75.01 136,-59.91"/>
<polygon fill="green" stroke="green" stroke-width="0.3" points="139.5,-60.32 136,-50.32 132.5,-60.32 139.5,-60.32"/>
</g>
<!-- Ray 4 -->
<g id="node4" class="node">
<title>Ray 4</title>
<polygon fill="lightgray" stroke="black" points="214,-123.27 174,-123.27 174,-102.52 214,-102.52 214,-123.27"/>
<text xml:space="preserve" text-anchor="middle" x="194" y="-110.72" font-family="Times,serif" font-size="9.00">Ray 4</text>
</g>
<!-- Ray 5 -->
<g id="node5" class="node">
<title>Ray 5</title>
<polygon fill="lightgray" stroke="black" points="272,-123.27 232,-123.27 232,-102.52 272,-102.52 272,-123.27"/>
<text xml:space="preserve" text-anchor="middle" x="252" y="-110.72" font-family="Times,serif" font-size="9.00">Ray 5</text>
</g>
<!-- Ray 6 -->
<g id="node6" class="node">
<title>Ray 6</title>
<polygon fill="lightgray" stroke="black" points="330,-123.27 290,-123.27 290,-102.52 330,-102.52 330,-123.27"/>
<text xml:space="preserve" text-anchor="middle" x="310" y="-110.72" font-family="Times,serif" font-size="9.00">Ray 6</text>
</g>
<!-- Ray 7 -->
<g id="node7" class="node">
<title>Ray 7</title>
<polygon fill="lightgray" stroke="black" points="388,-123.27 348,-123.27 348,-102.52 388,-102.52 388,-123.27"/>
<text xml:space="preserve" text-anchor="middle" x="368" y="-110.72" font-family="Times,serif" font-size="9.00">Ray 7</text>
</g>
<!-- Ray 8 -->
<g id="node8" class="node">
<title>Ray 8</title>
<polygon fill="lightgray" stroke="black" points="446,-123.27 406,-123.27 406,-102.52 446,-102.52 446,-123.27"/>
<text xml:space="preserve" text-anchor="middle" x="426" y="-110.72" font-family="Times,serif" font-size="9.00">Ray 8</text>
</g>
<!-- Accel -->
<g id="node12" class="node">
<title>Accel</title>
<ellipse fill="lightblue" stroke="black" cx="426" cy="-27.22" rx="27.22" ry="27.22"/>
<text xml:space="preserve" text-anchor="middle" x="426" y="-25.05" font-family="Times,serif" font-size="9.00">Accel</text>
</g>
<!-- Ray 8&#45;&gt;Accel -->
<g id="edge1" class="edge">
<title>Ray 8&#45;&gt;Accel</title>
<path fill="none" stroke="green" stroke-width="0.75" d="M426,-102.3C426,-93.31 426,-79.29 426,-65.85"/>
<polygon fill="green" stroke="green" stroke-width="0.75" points="429.5,-65.95 426,-55.95 422.5,-65.95 429.5,-65.95"/>
</g>
<!-- Ray 9 -->
<g id="node9" class="node">
<title>Ray 9</title>
<polygon fill="lightgray" stroke="black" points="518,-123.27 478,-123.27 478,-102.52 518,-102.52 518,-123.27"/>
<text xml:space="preserve" text-anchor="middle" x="498" y="-110.72" font-family="Times,serif" font-size="9.00">Ray 9</text>
</g>
<!-- Steer -->
<g id="node11" class="node">
<title>Steer</title>
<ellipse fill="lightblue" stroke="black" cx="498" cy="-27.22" rx="26.69" ry="26.69"/>
<text xml:space="preserve" text-anchor="middle" x="498" y="-25.05" font-family="Times,serif" font-size="9.00">Steer</text>
</g>
<!-- Ray 9&#45;&gt;Steer -->
<g id="edge3" class="edge">
<title>Ray 9&#45;&gt;Steer</title>
<path fill="none" stroke="green" stroke-width="0.19" d="M498,-102.3C498,-92.9 498,-78 498,-64.02"/>
<polygon fill="green" stroke="green" stroke-width="0.19" points="501.5,-64.39 498,-54.39 494.5,-64.39 501.5,-64.39"/>
</g>
<!-- Speed -->
<g id="node10" class="node">
<title>Speed</title>
<polygon fill="lightgray" stroke="black" points="576.38,-123.27 535.62,-123.27 535.62,-102.52 576.38,-102.52 576.38,-123.27"/>
<text xml:space="preserve" text-anchor="middle" x="556" y="-110.72" font-family="Times,serif" font-size="9.00">Speed</text>
</g>
<!-- 933 -->
<g id="node14" class="node">
<title>933</title>
<ellipse fill="white" stroke="black" cx="617" cy="-112.9" rx="22.45" ry="22.45"/>
<text xml:space="preserve" text-anchor="middle" x="617" y="-110.72" font-family="Times,serif" font-size="9.00">933</text>
</g>
<!-- 934 -->
<g id="node15" class="node">
<title>934</title>
<ellipse fill="white" stroke="black" cx="680" cy="-112.9" rx="22.45" ry="22.45"/>
<text xml:space="preserve" text-anchor="middle" x="680" y="-110.72" font-family="Times,serif" font-size="9.00">934</text>
</g>
<!-- 935 -->
<g id="node16" class="node">
<title>935</title>
<ellipse fill="white" stroke="black" cx="743" cy="-112.9" rx="22.45" ry="22.45"/>
<text xml:space="preserve" text-anchor="middle" x="743" y="-110.72" font-family="Times,serif" font-size="9.00">935</text>
</g>
<!-- 936 -->
<g id="node17" class="node">
<title>936</title>
<ellipse fill="white" stroke="black" cx="806" cy="-112.9" rx="22.45" ry="22.45"/>
<text xml:space="preserve" text-anchor="middle" x="806" y="-110.72" font-family="Times,serif" font-size="9.00">936</text>
</g>
<!-- 937 -->
<g id="node18" class="node">
<title>937</title>
<ellipse fill="white" stroke="black" cx="869" cy="-112.9" rx="22.45" ry="22.45"/>
<text xml:space="preserve" text-anchor="middle" x="869" y="-110.72" font-family="Times,serif" font-size="9.00">937</text>
</g>
<!-- 938 -->
<g id="node19" class="node">
<title>938</title>
<ellipse fill="white" stroke="black" cx="932" cy="-112.9" rx="22.45" ry="22.45"/>
<text xml:space="preserve" text-anchor="middle" x="932" y="-110.72" font-family="Times,serif" font-size="9.00">938</text>
</g>
<!-- 939 -->
<g id="node20" class="node">
<title>939</title>
<ellipse fill="white" stroke="black" cx="995" cy="-112.9" rx="22.45" ry="22.45"/>
<text xml:space="preserve" text-anchor="middle" x="995" y="-110.72" font-family="Times,serif" font-size="9.00">939</text>
</g>
<!-- 940 -->
<g id="node21" class="node">
<title>940</title>
<ellipse fill="white" stroke="black" cx="1058" cy="-112.9" rx="22.45" ry="22.45"/>
<text xml:space="preserve" text-anchor="middle" x="1058" y="-110.72" font-family="Times,serif" font-size="9.00">940</text>
</g>
<!-- 941 -->
<g id="node22" class="node">
<title>941</title>
<ellipse fill="white" stroke="black" cx="1121" cy="-112.9" rx="22.45" ry="22.45"/>
<text xml:space="preserve" text-anchor="middle" x="1121" y="-110.72" font-family="Times,serif" font-size="9.00">941</text>
</g>
</g>
</svg>
