<?xml version="1.0" encoding="UTF-8" standalone="no"?>
<!DOCTYPE svg PUBLIC "-//W3C//DTD SVG 1.1//EN"
 "http://www.w3.org/Graphics/SVG/1.1/DTD/svg11.dtd">
<!-- Generated by graphviz version 14.0.2 (0)
 -->
<!-- Pages: 1 -->
<svg width="1141pt" height="409pt"
 viewBox="0.00 0.00 1141.00 409.00" xmlns="http://www.w3.org/2000/svg" xmlns:xlink="http://www.w3.org/1999/xlink">
<g id="graph0" class="graph" transform="scale(1 1) rotate(0) translate(4 405.39)">
<polygon fill="white" stroke="none" points="-4,4 -4,-405.39 1137.14,-405.39 1137.14,4 -4,4"/>
<!-- Ray 1 -->
<g id="node1" class="node">
<title>Ray 1</title>
<polygon fill="lightgray" stroke="black" points="43.69,-389.31 3.69,-389.31 3.69,-368.56 43.69,-368.56 43.69,-389.31"/>
<text xml:space="preserve" text-anchor="middle" x="23.69" y="-376.76" font-family="Times,serif" font-size="9.00">Ray 1</text>
</g>
<!-- Ray 2 -->
<g id="node2" class="node">
<title>Ray 2</title>
<polygon fill="lightgray" stroke="black" points="101.69,-389.31 61.69,-389.31 61.69,-368.56 101.69,-368.56 101.69,-389.31"/>
<text xml:space="preserve" text-anchor="middle" x="81.69" y="-376.76" font-family="Times,serif" font-size="9.00">Ray 2</text>
</g>
<!-- 5026 -->
<g id="node13" class="node">
<title>5026</title>
<ellipse fill="white" stroke="black" cx="81.69" cy="-294.32" rx="26.16" ry="26.16"/>
<text xml:space="preserve" text-anchor="middle" x="81.69" y="-292.15" font-family="Times,serif" font-size="9.00">5026</text>
</g>
<!-- Ray 2&#45;&gt;5026 -->
<g id="edge1" class="edge">
<title>Ray 2&#45;&gt;5026</title>
<path fill="none" stroke="green" stroke-width="0.27" d="M81.69,-368.13C81.69,-358.87 81.69,-344.4 81.69,-330.79"/>
<polygon fill="green" stroke="green" stroke-width="0.27" points="85.19,-331.07 81.69,-321.07 78.19,-331.07 85.19,-331.07"/>
</g>
<!-- Ray 3 -->
<g id="node3" class="node">
<title>Ray 3</title>
<polygon fill="lightgray" stroke="black" points="159.69,-389.31 119.69,-389.31 119.69,-368.56 159.69,-368.56 159.69,-389.31"/>
<text xml:space="preserve" text-anchor="middle" x="139.69" y="-376.76" font-family="Times,serif" font-size="9.00">Ray 3</text>
</g>
<!-- Ray 4 -->
<g id="node4" class="node">
<title>Ray 4</title>
<polygon fill="lightgray" stroke="black" points="217.69,-389.31 177.69,-389.31 177.69,-368.56 217.69,-368.56 217.69,-389.31"/>
<text xml:space="preserve" text-anchor="middle" x="197.69" y="-376.76" font-family="Times,serif" font-size="9.00">Ray 4</text>
</g>
<!-- Ray 5 -->
<g id="node5" class="node">
<title>Ray 5</title>
<polygon fill="lightgray" stroke="black" points="275.69,-389.31 235.69,-389.31 235.69,-368.56 275.69,-368.56 275.69,-389.31"/>
<text xml:space="preserve" text-anchor="middle" x="255.69" y="-376.76" font-family="Times,serif" font-size="9.00">Ray 5</text>
</g>
<!-- 988 -->
<g id="node22" class="node">
<title>988</title>
<ellipse fill="white" stroke="black" cx="255.69" cy="-294.32" rx="22.45" ry="22.45"/>
<text xml:space="preserve" text-anchor="middle" x="255.69" y="-292.15" font-family="Times,serif" font-size="9.00">988</text>
</g>
<!-- Ray 5&#45;&gt;988 -->
<g id="edge8" class="edge">
<title>Ray 5&#45;&gt;988</title>
<path fill="none" stroke="green" stroke-width="0.38" d="M255.69,-368.13C255.69,-358.09 255.69,-341.93 255.69,-327.38"/>
<polygon fill="green" stroke="green" stroke-width="0.38" points="259.19,-327.76 255.69,-317.76 252.19,-327.76 259.19,-327.76"/>
</g>
<!-- Ray 6 -->
<g id="node6" class="node">
<title>Ray 6</title>
<polygon fill="lightgray" stroke="black" points="333.69,-389.31 293.69,-389.31 293.69,-368.56 333.69,-368.56 333.69,-389.31"/>
<text xml:space="preserve" text-anchor="middle" x="313.69" y="-376.76" font-family="Times,serif" font-size="9.00">Ray 6</text>
</g>
<!-- Ray 7 -->
<g id="node7" class="node">
<title>Ray 7</title>
<polygon fill="lightgray" stroke="black" points="391.69,-389.31 351.69,-389.31 351.69,-368.56 391.69,-368.56 391.69,-389.31"/>
<text xml:space="preserve" text-anchor="middle" x="371.69" y="-376.76" font-family="Times,serif" font-size="9.00">Ray 7</text>
</g>
<!-- Ray 8 -->
<g id="node8" class="node">
<title>Ray 8</title>
<polygon fill="lightgray" stroke="black" points="449.69,-389.31 409.69,-389.31 409.69,-368.56 449.69,-368.56 449.69,-389.31"/>
<text xml:space="preserve" text-anchor="middle" x="429.69" y="-376.76" font-family="Times,serif" font-size="9.00">Ray 8</text>
</g>
<!-- Ray 9 -->
<g id="node9" class="node">
<title>Ray 9</title>
<polygon fill="lightgray" stroke="black" points="507.69,-389.31 467.69,-389.31 467.69,-368.56 507.69,-368.56 507.69,-389.31"/>
<text xml:space="preserve" text-anchor="middle" x="487.69" y="-376.76" font-family="Times,serif" font-size="9.00">Ray 9</text>
</g>
<!-- Speed -->
<g id="node10" class="node">
<title>Speed</title>
<polygon fill="lightgray" stroke="black" points="566.07,-389.31 525.32,-389.31 525.32,-368.56 566.07,-368.56 566.07,-389.31"/>
<text xml:space="preserve" text-anchor="middle" x="545.69" y="-376.76" font-family="Times,serif" font-size="9.00">Speed</text>
</g>
<!-- Steer -->
<g id="node11" class="node">
<title>Steer</title>
<ellipse fill="lightblue" stroke="black" cx="26.69" cy="-205.47" rx="26.69" ry="26.69"/>
<text xml:space="preserve" text-anchor="middle" x="26.69" y="-203.29" font-family="Times,serif" font-size="9.00">Steer</text>
</g>
<!-- Accel -->
<g id="node12" class="node">
<title>Accel</title>
<ellipse fill="lightblue" stroke="black" cx="119.69" cy="-27.22" rx="27.22" ry="27.22"/>
<text xml:space="preserve" text-anchor="middle" x="119.69" y="-25.05" font-family="Times,serif" font-size="9.00">Accel</text>
</g>
<!-- 5026&#45;&gt;Steer -->
<g id="edge5" class="edge">
<title>5026&#45;&gt;Steer</title>
<path fill="none" stroke="green" stroke-width="0.31" d="M68.1,-271.85C61.52,-261.47 53.51,-248.81 46.28,-237.4"/>
<polygon fill="green" stroke="green" stroke-width="0.31" points="49.27,-235.57 40.96,-228.99 43.35,-239.32 49.27,-235.57"/>
</g>
<!-- 5026&#45;&gt;Accel -->
<g id="edge2" class="edge">
<title>5026&#45;&gt;Accel</title>
<path fill="none" stroke="green" stroke-width="0.29" stroke-dasharray="1,5" d="M85.27,-268.38C92.01,-221.38 106.61,-119.49 114.46,-64.75"/>
<polygon fill="green" stroke="green" stroke-width="0.29" points="117.92,-65.29 115.87,-54.9 110.99,-64.3 117.92,-65.29"/>
</g>
<!-- 5166 -->
<g id="node14" class="node">
<title>5166</title>
<ellipse fill="white" stroke="black" cx="135.69" cy="-205.47" rx="26.16" ry="26.16"/>
<text xml:space="preserve" text-anchor="middle" x="135.69" y="-203.29" font-family="Times,serif" font-size="9.00">5166</text>
</g>
<!-- 5026&#45;&gt;5166 -->
<g id="edge3" class="edge">
<title>5026&#45;&gt;5166</title>
<path fill="none" stroke="green" stroke-width="0.38" d="M95.32,-271.41C101.78,-261.02 109.6,-248.43 116.64,-237.11"/>
<polygon fill="green" stroke="green" stroke-width="0.38" points="119.46,-239.21 121.76,-228.87 113.51,-235.51 119.46,-239.21"/>
</g>
<!-- 5166&#45;&gt;Accel -->
<g id="edge4" class="edge">
<title>5166&#45;&gt;Accel</title>
<path fill="none" stroke="green" stroke-width="0.41" stroke-dasharray="1,5" d="M133.4,-179.22C130.69,-149.33 126.15,-99.3 123.04,-65.09"/>
<polygon fill="green" stroke="green" stroke-width="0.41" points="126.53,-64.84 122.14,-55.2 119.56,-65.48 126.53,-64.84"/>
</g>
<!-- 5244 -->
<g id="node15" class="node">
<title>5244</title>
<ellipse fill="white" stroke="black" cx="173.69" cy="-116.61" rx="26.16" ry="26.16"/>
<text xml:space="preserve" text-anchor="middle" x="173.69" y="-114.44" font-family="Times,serif" font-size="9.00">5244</text>
</g>
<!-- 5166&#45;&gt;5244 -->
<g id="edge6" class="edge">
<title>5166&#45;&gt;5244</title>
<path fill="none" stroke="green" stroke-width="0.34" d="M145.88,-181.19C150.01,-171.75 154.85,-160.67 159.33,-150.43"/>
<polygon fill="green" stroke="green" stroke-width="0.34" points="162.47,-151.98 163.28,-141.42 156.06,-149.18 162.47,-151.98"/>
</g>
<!-- 5244&#45;&gt;Accel -->
<g id="edge7" class="edge">
<title>5244&#45;&gt;Accel</title>
<path fill="none" stroke="green" stroke-width="0.23" d="M160.34,-94.01C153.87,-83.54 145.98,-70.77 138.88,-59.28"/>
<polygon fill="green" stroke="green" stroke-width="0.23" points="142.06,-57.76 133.82,-51.09 136.1,-61.44 142.06,-57.76"/>
</g>
<!-- 982 -->
<g id="node16" class="node">
<title>982</title>
<ellipse fill="white" stroke="black" cx="606.69" cy="-378.94" rx="22.45" ry="22.45"/>
<text xml:space="preserve" text-anchor="middle" x="606.69" y="-376.76" font-family="Times,serif" font-size="9.00">982</text>
</g>
<!-- 983 -->
<g id="node17" class="node">
<title>983</title>
<ellipse fill="white" stroke="black" cx="669.69" cy="-378.94" rx="22.45" ry="22.45"/>
<text xml:space="preserve" text-anchor="middle" x="669.69" y="-376.76" font-family="Times,serif" font-size="9.00">983</text>
</g>
<!-- 984 -->
<g id="node18" class="node">
<title>984</title>
<ellipse fill="white" stroke="black" cx="732.69" cy="-378.94" rx="22.45" ry="22.45"/>
<text xml:space="preserve" text-anchor="middle" x="732.69" y="-376.76" font-family="Times,serif" font-size="9.00">984</text>
</g>
<!-- 985 -->
<g id="node19" class="node">
<title>985</title>
<ellipse fill="white" stroke="black" cx="795.69" cy="-378.94" rx="22.45" ry="22.45"/>
<text xml:space="preserve" text-anchor="middle" x="795.69" y="-376.76" font-family="Times,serif" font-size="9.00">985</text>
</g>
<!-- 986 -->
<g id="node20" class="node">
<title>986</title>
<ellipse fill="white" stroke="black" cx="858.69" cy="-378.94" rx="22.45" ry="22.45"/>
<text xml:space="preserve" text-anchor="middle" x="858.69" y="-376.76" font-family="Times,serif" font-size="9.00">986</text>
</g>
<!-- 987 -->
<g id="node21" class="node">
<title>987</title>
<ellipse fill="white" stroke="black" cx="921.69" cy="-378.94" rx="22.45" ry="22.45"/>
<text xml:space="preserve" text-anchor="middle" x="921.69" y="-376.76" font-family="Times,serif" font-size="9.00">987</text>
</g>
<!-- 989 -->
<g id="node23" class="node">
<title>989</title>
<ellipse fill="white" stroke="black" cx="984.69" cy="-378.94" rx="22.45" ry="22.45"/>
<text xml:space="preserve" text-anchor="middle" x="984.69" y="-376.76" font-family="Times,serif" font-size="9.00">989</text>
</g>
<!-- 990 -->
<g id="node24" class="node">
<title>990</title>
<ellipse fill="white" stroke="black" cx="1047.69" cy="-378.94" rx="22.45" ry="22.45"/>
<text xml:space="preserve" text-anchor="middle" x="1047.69" y="-376.76" font-family="Times,serif" font-size="9.00">990</text>
</g>
<!-- 991 -->
<g id="node25" class="node">
<title>991</title>
<ellipse fill="white" stroke="black" cx="1110.69" cy="-378.94" rx="22.45" ry="22.45"/>
<text xml:space="preserve" text-anchor="middle" x="1110.69" y="-376.76" font-family="Times,serif" font-size="9.00">991</text>
</g>
</g>
</svg>
