<?xml version="1.0" encoding="UTF-8" standalone="no"?>
<!DOCTYPE svg PUBLIC "-//W3C//DTD SVG 1.1//EN"
 "http://www.w3.org/Graphics/SVG/1.1/DTD/svg11.dtd">
<!-- Generated by graphviz version 14.0.2 (0)
 -->
<!-- Pages: 1 -->
<svg width="827pt" height="321pt"
 viewBox="0.00 0.00 827.00 321.00" xmlns="http://www.w3.org/2000/svg" xmlns:xlink="http://www.w3.org/1999/xlink">
<g id="graph0" class="graph" transform="scale(1 1) rotate(0) translate(4 317.06)">
<polygon fill="white" stroke="none" points="-4,4 -4,-317.06 823.45,-317.06 823.45,4 -4,4"/>
<!-- Ray 1 -->
<g id="node1" class="node">
<title>Ray 1</title>
<polygon fill="lightgray" stroke="black" points="40,-300.99 0,-300.99 0,-280.24 40,-280.24 40,-300.99"/>
<text xml:space="preserve" text-anchor="middle" x="20" y="-288.44" font-family="Times,serif" font-size="9.00">Ray 1</text>
</g>
<!-- Ray 2 -->
<g id="node2" class="node">
<title>Ray 2</title>
<polygon fill="lightgray" stroke="black" points="273,-300.99 233,-300.99 233,-280.24 273,-280.24 273,-300.99"/>
<text xml:space="preserve" text-anchor="middle" x="253" y="-288.44" font-family="Times,serif" font-size="9.00">Ray 2</text>
</g>
<!-- Accel -->
<g id="node12" class="node">
<title>Accel</title>
<ellipse fill="lightblue" stroke="black" cx="105" cy="-204.94" rx="27.22" ry="27.22"/>
<text xml:space="preserve" text-anchor="middle" x="105" y="-202.76" font-family="Times,serif" font-size="9.00">Accel</text>
</g>
<!-- Ray 2&#45;&gt;Accel -->
<g id="edge1" class="edge">
<title>Ray 2&#45;&gt;Accel</title>
<path fill="none" stroke="red" stroke-width="1.09" stroke-dasharray="1,5" d="M232.9,-280.25C210.3,-269.49 172.76,-250.9 142,-232.16 140.08,-230.99 138.14,-229.76 136.19,-228.49"/>
<polygon fill="red" stroke="red" stroke-width="1.09" points="138.18,-225.62 127.94,-222.91 134.26,-231.41 138.18,-225.62"/>
</g>
<!-- 5021 -->
<g id="node19" class="node">
<title>5021</title>
<ellipse fill="white" stroke="black" cx="293" cy="-204.94" rx="26.16" ry="26.16"/>
<text xml:space="preserve" text-anchor="middle" x="293" y="-202.76" font-family="Times,serif" font-size="9.00">5021</text>
</g>
<!-- Ray 2&#45;&gt;5021 -->
<g id="edge2" class="edge">
<title>Ray 2&#45;&gt;5021</title>
<path fill="none" stroke="red" stroke-width="0.43" d="M257.59,-280.01C262.44,-269.87 270.35,-253.32 277.47,-238.43"/>
<polygon fill="red" stroke="red" stroke-width="0.43" points="280.56,-240.08 281.71,-229.55 274.24,-237.06 280.56,-240.08"/>
</g>
<!-- Ray 3 -->
<g id="node3" class="node">
<title>Ray 3</title>
<polygon fill="lightgray" stroke="black" points="249,-215.31 209,-215.31 209,-194.56 249,-194.56 249,-215.31"/>
<text xml:space="preserve" text-anchor="middle" x="229" y="-202.76" font-family="Times,serif" font-size="9.00">Ray 3</text>
</g>
<!-- 5208 -->
<g id="node17" class="node">
<title>5208</title>
<ellipse fill="white" stroke="black" cx="229" cy="-115.55" rx="26.16" ry="26.16"/>
<text xml:space="preserve" text-anchor="middle" x="229" y="-113.37" font-family="Times,serif" font-size="9.00">5208</text>
</g>
<!-- Ray 3&#45;&gt;5208 -->
<g id="edge7" class="edge">
<title>Ray 3&#45;&gt;5208</title>
<path fill="none" stroke="green" stroke-width="0.47" d="M229,-194.25C229,-184.17 229,-167.76 229,-152.61"/>
<polygon fill="green" stroke="green" stroke-width="0.47" points="232.5,-152.62 229,-142.62 225.5,-152.62 232.5,-152.62"/>
</g>
<!-- Ray 4 -->
<g id="node4" class="node">
<title>Ray 4</title>
<polygon fill="lightgray" stroke="black" points="98,-300.99 58,-300.99 58,-280.24 98,-280.24 98,-300.99"/>
<text xml:space="preserve" text-anchor="middle" x="78" y="-288.44" font-family="Times,serif" font-size="9.00">Ray 4</text>
</g>
<!-- Steer -->
<g id="node11" class="node">
<title>Steer</title>
<ellipse fill="lightblue" stroke="black" cx="229" cy="-26.69" rx="26.69" ry="26.69"/>
<text xml:space="preserve" text-anchor="middle" x="229" y="-24.52" font-family="Times,serif" font-size="9.00">Steer</text>
</g>
<!-- Ray 4&#45;&gt;Steer -->
<g id="edge10" class="edge">
<title>Ray 4&#45;&gt;Steer</title>
<path fill="none" stroke="red" stroke-width="0.36" d="M74.25,-279.83C67.16,-259.74 53.82,-212.76 69,-177.71 95.06,-117.55 158.46,-70.45 197.17,-46.05"/>
<polygon fill="red" stroke="red" stroke-width="0.36" points="198.83,-49.14 205.51,-40.91 195.16,-43.18 198.83,-49.14"/>
</g>
<!-- Ray 4&#45;&gt;Accel -->
<g id="edge11" class="edge">
<title>Ray 4&#45;&gt;Accel</title>
<path fill="none" stroke="green" stroke-width="1.28" d="M81.1,-280.01C84.08,-270.76 88.79,-256.16 93.25,-242.36"/>
<polygon fill="green" stroke="green" stroke-width="1.28" points="96.55,-243.52 96.29,-232.93 89.89,-241.37 96.55,-243.52"/>
</g>
<!-- Ray 5 -->
<g id="node5" class="node">
<title>Ray 5</title>
<polygon fill="lightgray" stroke="black" points="452,-300.99 412,-300.99 412,-280.24 452,-280.24 452,-300.99"/>
<text xml:space="preserve" text-anchor="middle" x="432" y="-288.44" font-family="Times,serif" font-size="9.00">Ray 5</text>
</g>
<!-- Ray 6 -->
<g id="node6" class="node">
<title>Ray 6</title>
<polygon fill="lightgray" stroke="black" points="510,-300.99 470,-300.99 470,-280.24 510,-280.24 510,-300.99"/>
<text xml:space="preserve" text-anchor="middle" x="490" y="-288.44" font-family="Times,serif" font-size="9.00">Ray 6</text>
</g>
<!-- Ray 7 -->
<g id="node7" class="node">
<title>Ray 7</title>
<polygon fill="lightgray" stroke="black" points="568,-300.99 528,-300.99 528,-280.24 568,-280.24 568,-300.99"/>
<text xml:space="preserve" text-anchor="middle" x="548" y="-288.44" font-family="Times,serif" font-size="9.00">Ray 7</text>
</g>
<!-- Ray 8 -->
<g id="node8" class="node">
<title>Ray 8</title>
<polygon fill="lightgray" stroke="black" points="485,-215.31 445,-215.31 445,-194.56 485,-194.56 485,-215.31"/>
<text xml:space="preserve" text-anchor="middle" x="465" y="-202.76" font-family="Times,serif" font-size="9.00">Ray 8</text>
</g>
<!-- 5343 -->
<g id="node13" class="node">
<title>5343</title>
<ellipse fill="white" stroke="black" cx="372" cy="-115.55" rx="26.16" ry="26.16"/>
<text xml:space="preserve" text-anchor="middle" x="372" y="-113.37" font-family="Times,serif" font-size="9.00">5343</text>
</g>
<!-- Ray 8&#45;&gt;5343 -->
<g id="edge12" class="edge">
<title>Ray 8&#45;&gt;5343</title>
<path fill="none" stroke="red" stroke-width="0.44" d="M454.69,-194.25C441.2,-181.57 417.08,-158.9 398.35,-141.31"/>
<polygon fill="red" stroke="red" stroke-width="0.44" points="400.87,-138.88 391.19,-134.58 396.08,-143.98 400.87,-138.88"/>
</g>
<!-- 984 -->
<g id="node16" class="node">
<title>984</title>
<ellipse fill="white" stroke="black" cx="465" cy="-115.55" rx="22.45" ry="22.45"/>
<text xml:space="preserve" text-anchor="middle" x="465" y="-113.37" font-family="Times,serif" font-size="9.00">984</text>
</g>
<!-- Ray 8&#45;&gt;984 -->
<g id="edge3" class="edge">
<title>Ray 8&#45;&gt;984</title>
<path fill="none" stroke="green" stroke-width="0.11" d="M465,-194.25C465,-183.14 465,-164.34 465,-148.02"/>
<polygon fill="green" stroke="green" stroke-width="0.11" points="468.5,-148.44 465,-138.44 461.5,-148.44 468.5,-148.44"/>
</g>
<!-- Ray 9 -->
<g id="node9" class="node">
<title>Ray 9</title>
<polygon fill="lightgray" stroke="black" points="394,-300.99 354,-300.99 354,-280.24 394,-280.24 394,-300.99"/>
<text xml:space="preserve" text-anchor="middle" x="374" y="-288.44" font-family="Times,serif" font-size="9.00">Ray 9</text>
</g>
<!-- Ray 9&#45;&gt;5343 -->
<g id="edge9" class="edge">
<title>Ray 9&#45;&gt;5343</title>
<path fill="none" stroke="red" stroke-width="0.2" d="M372.23,-279.89C370.25,-268.5 367.17,-249.04 366,-232.16 364.33,-208.02 364.82,-201.88 366,-177.71 366.41,-169.3 367.14,-160.27 367.95,-151.79"/>
<polygon fill="red" stroke="red" stroke-width="0.2" points="371.4,-152.41 368.93,-142.11 364.44,-151.7 371.4,-152.41"/>
</g>
<!-- 7526 -->
<g id="node14" class="node">
<title>7526</title>
<ellipse fill="white" stroke="black" cx="401" cy="-204.94" rx="26.16" ry="26.16"/>
<text xml:space="preserve" text-anchor="middle" x="401" y="-202.76" font-family="Times,serif" font-size="9.00">7526</text>
</g>
<!-- Ray 9&#45;&gt;7526 -->
<g id="edge14" class="edge">
<title>Ray 9&#45;&gt;7526</title>
<path fill="none" stroke="green" stroke-width="0.37" d="M377.1,-280.01C380.25,-270.25 385.32,-254.53 389.98,-240.09"/>
<polygon fill="green" stroke="green" stroke-width="0.37" points="393.2,-241.5 392.94,-230.91 386.54,-239.35 393.2,-241.5"/>
</g>
<!-- Speed -->
<g id="node10" class="node">
<title>Speed</title>
<polygon fill="lightgray" stroke="black" points="191.38,-215.31 150.62,-215.31 150.62,-194.56 191.38,-194.56 191.38,-215.31"/>
<text xml:space="preserve" text-anchor="middle" x="171" y="-202.76" font-family="Times,serif" font-size="9.00">Speed</text>
</g>
<!-- Speed&#45;&gt;5208 -->
<g id="edge13" class="edge">
<title>Speed&#45;&gt;5208</title>
<path fill="none" stroke="red" stroke-width="0.1" d="M177.43,-194.25C185.06,-182.75 198.16,-163.01 209.25,-146.31"/>
<polygon fill="red" stroke="red" stroke-width="0.1" points="212.12,-148.31 214.73,-138.04 206.29,-144.44 212.12,-148.31"/>
</g>
<!-- 7526&#45;&gt;5343 -->
<g id="edge15" class="edge">
<title>7526&#45;&gt;5343</title>
<path fill="none" stroke="red" stroke-width="0.14" stroke-dasharray="1,5" d="M392.92,-179.59C389.91,-170.5 386.42,-160.01 383.18,-150.23"/>
<polygon fill="red" stroke="red" stroke-width="0.14" points="386.57,-149.35 380.1,-140.96 379.93,-151.55 386.57,-149.35"/>
</g>
<!-- 982 -->
<g id="node15" class="node">
<title>982</title>
<ellipse fill="white" stroke="black" cx="608" cy="-290.61" rx="22.45" ry="22.45"/>
<text xml:space="preserve" text-anchor="middle" x="608" y="-288.44" font-family="Times,serif" font-size="9.00">982</text>
</g>
<!-- 5208&#45;&gt;Steer -->
<g id="edge6" class="edge">
<title>5208&#45;&gt;Steer</title>
<path fill="none" stroke="green" stroke-width="0.13" d="M229,-88.96C229,-81.06 229,-72.21 229,-63.75"/>
<polygon fill="green" stroke="green" stroke-width="0.13" points="232.5,-63.9 229,-53.9 225.5,-63.9 232.5,-63.9"/>
</g>
<!-- 988 -->
<g id="node18" class="node">
<title>988</title>
<ellipse fill="white" stroke="black" cx="671" cy="-290.61" rx="22.45" ry="22.45"/>
<text xml:space="preserve" text-anchor="middle" x="671" y="-288.44" font-family="Times,serif" font-size="9.00">988</text>
</g>
<!-- 5021&#45;&gt;Steer -->
<g id="edge4" class="edge">
<title>5021&#45;&gt;Steer</title>
<path fill="none" stroke="green" stroke-width="0.72" d="M288.64,-178.75C284.09,-155.12 275.93,-119.08 264,-89.39 259.88,-79.12 254.34,-68.47 248.89,-58.96"/>
<polygon fill="green" stroke="green" stroke-width="0.72" points="251.97,-57.29 243.86,-50.47 245.94,-60.86 251.97,-57.29"/>
</g>
<!-- 5021&#45;&gt;5343 -->
<g id="edge8" class="edge">
<title>5021&#45;&gt;5343</title>
<path fill="none" stroke="green" stroke-width="0.67" d="M310.14,-184.97C321.12,-172.84 335.52,-156.9 347.67,-143.46"/>
<polygon fill="green" stroke="green" stroke-width="0.67" points="350.1,-145.99 354.21,-136.22 344.91,-141.3 350.1,-145.99"/>
</g>
<!-- 5021&#45;&gt;5208 -->
<g id="edge5" class="edge">
<title>5021&#45;&gt;5208</title>
<path fill="none" stroke="red" stroke-width="0.19" d="M277.83,-183.23C269.54,-171.91 259.15,-157.71 250.08,-145.33"/>
<polygon fill="red" stroke="red" stroke-width="0.19" points="252.96,-143.35 244.23,-137.35 247.32,-147.48 252.96,-143.35"/>
</g>
<!-- 990 -->
<g id="node20" class="node">
<title>990</title>
<ellipse fill="white" stroke="black" cx="734" cy="-290.61" rx="22.45" ry="22.45"/>
<text xml:space="preserve" text-anchor="middle" x="734" y="-288.44" font-family="Times,serif" font-size="9.00">990</text>
</g>
<!-- 991 -->
<g id="node21" class="node">
<title>991</title>
<ellipse fill="white" stroke="black" cx="797" cy="-290.61" rx="22.45" ry="22.45"/>
<text xml:space="preserve" text-anchor="middle" x="797" y="-288.44" font-family="Times,serif" font-size="9.00">991</text>
</g>
</g>
</svg>
